<?xml version="1.0" encoding="UTF-8"?>
<svg width="174.46mm" height="104.66mm" version="1.1" viewBox="0 0 174.45918 104.6621" xmlns="http://www.w3.org/2000/svg" xmlns:cc="http://creativecommons.org/ns#" xmlns:dc="http://purl.org/dc/elements/1.1/" xmlns:rdf="http://www.w3.org/1999/02/22-rdf-syntax-ns#" xmlns:xlink="http://www.w3.org/1999/xlink">
<defs>
<clipPath id="y">
<path d="m50.2 252.4h494.8v296.8h-494.8z" clip-rule="evenodd"/>
</clipPath>
<clipPath id="x">
<path d="m50.2 252.4h494.6v296.6h-494.6z" clip-rule="evenodd"/>
</clipPath>
<clipPath id="w">
<path d="m50.2 252.4h494.6v296.6h-494.6z" clip-rule="evenodd"/>
</clipPath>
<clipPath id="v">
<path d="m50.2 252.4h494.6v296.6h-494.6z" clip-rule="evenodd"/>
</clipPath>
<clipPath id="u">
<path d="m50.2 252.4h494.6v296.6h-494.6z" clip-rule="evenodd"/>
</clipPath>
<clipPath id="t">
<path d="m50.2 252.4h494.6v296.6h-494.6z" clip-rule="evenodd"/>
</clipPath>
<clipPath id="s">
<path d="m50.2 252.4h494.6v296.6h-494.6z" clip-rule="evenodd"/>
</clipPath>
<clipPath id="r">
<path d="m50.2 252.4h494.6v296.6h-494.6z" clip-rule="evenodd"/>
</clipPath>
<clipPath id="q">
<path d="m50.2 252.4h494.6v296.6h-494.6z" clip-rule="evenodd"/>
</clipPath>
<clipPath id="p">
<path d="m50.2 252.4h494.6v296.6h-494.6z" clip-rule="evenodd"/>
</clipPath>
<clipPath id="o">
<path d="m50.2 252.4h494.6v296.6h-494.6z" clip-rule="evenodd"/>
</clipPath>
<clipPath id="n">
<path d="m50.2 252.4h494.6v296.6h-494.6z" clip-rule="evenodd"/>
</clipPath>
<clipPath id="m">
<path d="m50.2 252.4h494.6v296.6h-494.6z" clip-rule="evenodd"/>
</clipPath>
<clipPath id="l">
<path d="m50.2 252.4h494.6v296.6h-494.6z" clip-rule="evenodd"/>
</clipPath>
<clipPath id="k">
<path d="m50.2 252.4h494.6v296.6h-494.6z" clip-rule="evenodd"/>
</clipPath>
<clipPath id="j">
<path d="m50.225 549.08h494.62v-296.68h-494.62z" clip-rule="evenodd"/>
</clipPath>
<clipPath id="i">
<path d="m50.225 549.08h494.62v-296.68h-494.62z" clip-rule="evenodd"/>
</clipPath>
<clipPath id="h">
<path d="m50.225 549.08h494.62v-296.68h-494.62z" clip-rule="evenodd"/>
</clipPath>
<clipPath id="g">
<path d="m50.225 549.08h494.62v-296.68h-494.62z" clip-rule="evenodd"/>
</clipPath>
<clipPath id="f">
<path d="m50.225 549.08h494.62v-296.68h-494.62z" clip-rule="evenodd"/>
</clipPath>
<clipPath id="e">
<path d="m50.225 549.08h494.62v-296.68h-494.62z" clip-rule="evenodd"/>
</clipPath>
<clipPath id="d">
<path d="m50.2 252.4h494.6v296.6h-494.6z" clip-rule="evenodd"/>
</clipPath>
<clipPath id="c">
<path d="m50.2 252.4h494.6v296.6h-494.6z" clip-rule="evenodd"/>
</clipPath>
<clipPath id="b">
<path d="m50.2 252.4h494.6v296.6h-494.6z" clip-rule="evenodd"/>
</clipPath>
<clipPath id="a">
<path d="m50.2 252.4h494.6v296.6h-494.6z" clip-rule="evenodd"/>
</clipPath>
</defs>
<metadata>
<rdf:RDF>
<cc:Work rdf:about="">
<dc:format>image/svg+xml</dc:format>
<dc:type rdf:resource="http://purl.org/dc/dcmitype/StillImage"/>
<dc:title/>
</cc:Work>
</rdf:RDF>
</metadata>
<g transform="translate(-17.092 -9.5678)">
<g transform="translate(-5.2917 1.5119)">
<g transform="matrix(.35278 0 0 -.35278 2.3171 213.12)">
<g transform="matrix(0 -.77353 .84444 0 -58.818 648.78)">
<g transform="matrix(0 1.1842 -1.2928 0 797.09 77.382)">
<g clip-path="url(#y)">
<path d="m50.354 252.26h494.53v296.82h-494.53z" fill="#fff" fill-rule="evenodd"/>
</g>
<path d="m82.408 327.6h22.654v37.67h-22.654z" fill="#afabab"/>
<path d="m150.37 327.6h22.654v58.616h-22.654z" fill="#afabab"/>
<path d="m286.29 327.6h22.654v97.693h-22.654z" fill="#afabab"/>
<path d="m354.25 327.6h22.654v107.43h-22.654z" fill="#afabab"/>
<path d="m490.18 327.6h22.654v125.83h-22.654z" fill="#afabab"/>
<path d="m218.41 417.82h22.56v-90.22h-22.56zm203.73 29.05h22.73v-119.27h-22.73z" fill="#ffc000"/>
<path d="m82.408 365.27h22.654v118.64h-22.654z" fill="#d0cece"/>
<path d="m150.37 386.22h22.654v97.693h-22.654z" fill="#d0cece"/>
<path d="m286.29 425.29h22.654v58.616h-22.654z" fill="#d0cece"/>
<path d="m354.25 435.03h22.654v48.876h-22.654z" fill="#d0cece"/>
<path d="m490.18 453.43h22.654v30.48h-22.654z" fill="#d0cece"/>
<path d="m218.41 483.91h22.56v-66.09h-22.56zm203.73 0h22.73v-37.04h-22.73z" fill="#ffe07d"/>
<path d="m59.754 327.6h475.74" fill="none" stroke="#d9d9d9" stroke-linejoin="round" stroke-miterlimit="10" stroke-width=".64093"/>
<g clip-path="url(#x)">
<text transform="matrix(1,0,0,-1,89.775,343.55)" fill="#000000" font-family="'Times New Roman'" font-size="7.675px">
<tspan x="0 3.925" y="0">24</tspan>
</text>
</g>
<g clip-path="url(#w)">
<text transform="matrix(1,0,0,-1,157.75,354.02)" fill="#000000" font-family="'Times New Roman'" font-size="7.675px">
<tspan x="0 3.9495001" y="0">38</tspan>
</text>
</g>
<g clip-path="url(#v)">
<text transform="matrix(1,0,0,-1,225.75,369.83)" fill="#000000" font-family="'Times New Roman'" font-size="7.7px">
<tspan x="0 3.925" y="0">58</tspan>
</text>
</g>
<g clip-path="url(#u)">
<text transform="matrix(1,0,0,-1,293.73,373.57)" fill="#000000" font-family="'Times New Roman'" font-size="7.7px">
<tspan x="0 3.95" y="0">63</tspan>
</text>
</g>
<g clip-path="url(#t)">
<text transform="matrix(1,0,0,-1,361.72,378.45)" fill="#000000" font-family="'Times New Roman'" font-size="7.7px">
<tspan x="0 3.925" y="0">69</tspan>
</text>
</g>
<g clip-path="url(#s)">
<text transform="matrix(1,0,0,-1,429.7,384.37)" fill="#000000" font-family="'Times New Roman'" font-size="7.7px">
<tspan x="0 3.925" y="0">76</tspan>
</text>
</g>
<g clip-path="url(#r)">
<text transform="matrix(1,0,0,-1,497.7,387.65)" fill="#000000" font-family="'Times New Roman'" font-size="7.7px">
<tspan x="0 3.925" y="0">81</tspan>
</text>
</g>
<g clip-path="url(#q)">
<text transform="matrix(1,0,0,-1,89.775,421.73)" fill="#000000" font-family="'Times New Roman'" font-size="7.675px">
<tspan x="0 3.925" y="0">76</tspan>
</text>
</g>
<g clip-path="url(#p)">
<text transform="matrix(1,0,0,-1,157.75,432.2)" fill="#000000" font-family="'Times New Roman'" font-size="7.675px">
<tspan x="0 3.9495001" y="0">63</tspan>
</text>
</g>
<g clip-path="url(#o)">
<text transform="matrix(1,0,0,-1,225.75,448)" fill="#000000" font-family="'Times New Roman'" font-size="7.7px">
<tspan x="0 3.925" y="0">42</tspan>
</text>
</g>
<g clip-path="url(#n)">
<text transform="matrix(1,0,0,-1,293.73,451.75)" fill="#000000" font-family="'Times New Roman'" font-size="7.7px">
<tspan x="0 3.95" y="0">38</tspan>
</text>
</g>
<g clip-path="url(#m)">
<text transform="matrix(1,0,0,-1,361.72,456.63)" fill="#000000" font-family="'Times New Roman'" font-size="7.7px">
<tspan x="0 3.925" y="0">31</tspan>
</text>
</g>
<g clip-path="url(#l)">
<text transform="matrix(1,0,0,-1,429.7,462.55)" fill="#000000" font-family="'Times New Roman'" font-size="7.7px">
<tspan x="0 3.925" y="0">24</tspan>
</text>
</g>
<g clip-path="url(#k)">
<text transform="matrix(1,0,0,-1,497.7,465.82)" fill="#000000" font-family="'Times New Roman'" font-size="7.7px">
<tspan x="0 3.925" y="0">20</tspan>
</text>
</g>
<g clip-path="url(#j)">
<path d="m69.482 289.84 0.121-0.12-1.886-1.88-0.12 0.12 0.156 0.15c0.181 0.18 0.26 0.37 0.236 0.56-0.017 0.12-0.157 0.31-0.421 0.57l-2.844 2.85c-0.223 0.22-0.384 0.35-0.483 0.4-0.076 0.03-0.167 0.03-0.273 0-0.147-0.04-0.273-0.11-0.376-0.22l-0.156-0.15-0.12 0.12 1.885 1.88 0.121-0.12-0.159-0.16c-0.18-0.18-0.258-0.36-0.234-0.55 0.015-0.12 0.155-0.32 0.419-0.58l2.843-2.84c0.223-0.23 0.384-0.36 0.483-0.4 0.076-0.03 0.168-0.04 0.276-0.01 0.145 0.05 0.27 0.12 0.373 0.22zm-1.112 3.51c-0.071 0.77 0.051 1.31 0.367 1.63 0.162 0.16 0.342 0.26 0.54 0.29 0.198 0.04 0.425 0 0.68-0.12 0.178-0.08 0.4-0.26 0.669-0.52l1.269-1.27c0.188-0.19 0.331-0.3 0.428-0.34 0.078-0.03 0.159-0.03 0.242-0.01s0.196 0.1 0.339 0.25l0.117-0.12-1.47-1.47-0.117 0.12 0.062 0.06c0.138 0.14 0.214 0.25 0.227 0.35s-0.011 0.2-0.072 0.3c-0.023 0.04-0.121 0.15-0.292 0.32l-1.217 1.22c-0.27 0.27-0.502 0.43-0.694 0.48-0.193 0.05-0.373 0-0.539-0.17-0.258-0.26-0.373-0.65-0.347-1.19l1.567-1.57c0.201-0.2 0.338-0.31 0.409-0.34 0.093-0.03 0.181-0.03 0.263-0.01s0.204 0.12 0.367 0.28l0.117-0.12-1.471-1.47-0.117 0.12 0.065 0.06c0.152 0.16 0.216 0.3 0.192 0.43s-0.144 0.3-0.36 0.52l-1.104 1.1c-0.357 0.36-0.582 0.57-0.677 0.63-0.094 0.06-0.172 0.09-0.233 0.08-0.062 0-0.121-0.03-0.177-0.09-0.061-0.06-0.117-0.15-0.169-0.27l-0.165 0.07 0.532 1.26 0.139 0.14zm3.371 3.99 1.954-1.96c0.277-0.27 0.482-0.42 0.617-0.43 0.175-0.02 0.33 0.04 0.464 0.18l0.269 0.27 0.117-0.12-1.775-1.78-0.117 0.12 0.133 0.13c0.086 0.09 0.144 0.19 0.172 0.31 0.028 0.11 0.019 0.22-0.028 0.32-0.046 0.1-0.176 0.26-0.388 0.47l-1.954 1.95-0.577-0.58-0.234 0.24 0.578 0.58-0.195 0.19c-0.296 0.3-0.5 0.6-0.61 0.9s-0.131 0.61-0.062 0.93 0.226 0.61 0.471 0.85c0.227 0.23 0.509 0.36 0.847 0.41 0.223 0.03 0.395-0.02 0.516-0.14 0.065-0.07 0.098-0.16 0.099-0.27s-0.031-0.2-0.096-0.27c-0.05-0.05-0.12-0.08-0.211-0.1s-0.235-0.01-0.433 0.03c-0.198 0.03-0.351 0.04-0.459 0.01-0.108-0.02-0.204-0.08-0.286-0.16-0.099-0.1-0.157-0.21-0.174-0.33-0.016-0.12 0.017-0.26 0.098-0.4s0.353-0.44 0.816-0.9l0.214-0.22 0.766 0.77 0.234-0.24zm2.146 2.79c0.45 0.45 0.983 0.64 1.597 0.57 0.524-0.06 0.975-0.28 1.353-0.66 0.267-0.27 0.472-0.6 0.617-1s0.175-0.78 0.089-1.14c-0.085-0.37-0.265-0.69-0.54-0.96-0.448-0.45-0.982-0.63-1.603-0.53-0.524 0.08-0.973 0.3-1.347 0.68-0.273 0.27-0.476 0.61-0.61 1.01-0.135 0.41-0.156 0.78-0.064 1.13s0.262 0.65 0.508 0.9zm0.111-0.31c-0.115-0.12-0.196-0.27-0.244-0.45-0.047-0.19-0.022-0.4 0.078-0.64s0.283-0.5 0.552-0.77c0.433-0.43 0.892-0.72 1.378-0.86 0.485-0.14 0.869-0.07 1.15 0.21 0.21 0.21 0.297 0.47 0.26 0.78s-0.266 0.67-0.688 1.1c-0.528 0.52-1.057 0.83-1.587 0.9-0.362 0.06-0.661-0.04-0.899-0.27zm2.689 3.11 0.669-0.67c-0.197 0.69-0.165 1.17 0.097 1.43 0.119 0.12 0.254 0.18 0.404 0.19 0.15 0 0.273-0.04 0.368-0.14 0.085-0.08 0.128-0.18 0.13-0.29 2e-3 -0.12-0.036-0.22-0.113-0.29-0.076-0.08-0.198-0.13-0.367-0.15s-0.276-0.05-0.321-0.09c-0.039-0.04-0.06-0.11-0.062-0.19-9e-3 -0.19 0.037-0.44 0.136-0.74l1.425-1.43c0.164-0.16 0.309-0.27 0.435-0.31 0.086-0.03 0.185-0.03 0.295 0 0.111 0.03 0.233 0.12 0.367 0.25l0.117-0.11-1.522-1.53-0.117 0.12c0.151 0.15 0.24 0.29 0.266 0.41 0.019 0.09 2e-3 0.18-0.052 0.28-0.026 0.05-0.125 0.16-0.299 0.33l-1.152 1.15c-0.346 0.35-0.559 0.55-0.639 0.6s-0.154 0.07-0.222 0.07c-0.069-0.01-0.131-0.04-0.187-0.1-0.067-0.07-0.127-0.16-0.179-0.28l-0.149 0.09 0.536 1.26zm2.821 1.55c0 0.43 3e-3 0.69 0.01 0.76 0.015 0.18 0.056 0.35 0.123 0.5 0.067 0.16 0.156 0.3 0.266 0.41 0.186 0.18 0.401 0.29 0.643 0.32 0.242 0.02 0.489-0.05 0.74-0.21-0.037 0.49-0.019 0.85 0.054 1.08 0.072 0.23 0.189 0.43 0.352 0.6 0.158 0.15 0.338 0.25 0.542 0.29 0.203 0.05 0.433 0.01 0.688-0.1 0.173-0.08 0.394-0.25 0.662-0.52l1.279-1.28c0.186-0.19 0.328-0.3 0.425-0.34 0.069-0.03 0.15-0.03 0.242 0 0.092 0.02 0.204 0.1 0.336 0.23l0.116-0.12-1.467-1.46-0.116 0.11 0.061 0.07c0.128 0.12 0.203 0.25 0.224 0.37 0.015 0.08-4e-3 0.17-0.058 0.27-0.028 0.05-0.129 0.16-0.302 0.33l-1.279 1.28c-0.242 0.24-0.442 0.38-0.6 0.42-0.223 0.06-0.428-0.01-0.614-0.19-0.114-0.12-0.201-0.26-0.259-0.44-0.059-0.17-0.092-0.42-0.101-0.74l0.029-0.04 0.146-0.13 1.419-1.42c0.203-0.2 0.341-0.32 0.413-0.34 0.073-0.03 0.157-0.03 0.254 0 0.096 0.03 0.22 0.12 0.371 0.27l0.117-0.12-1.503-1.5-0.116 0.12c0.164 0.16 0.258 0.29 0.28 0.39 0.023 0.1 7e-3 0.21-0.047 0.31-0.026 0.05-0.127 0.16-0.305 0.34l-1.279 1.27c-0.242 0.25-0.452 0.38-0.629 0.42-0.234 0.04-0.436-0.02-0.607-0.19-0.117-0.12-0.201-0.27-0.253-0.44-0.085-0.28-0.116-0.52-0.095-0.74l1.594-1.59c0.195-0.2 0.335-0.31 0.42-0.34 0.086-0.03 0.17-0.04 0.252-0.01 0.082 0.02 0.204 0.11 0.367 0.27l0.117-0.11-1.471-1.47-0.117 0.11c0.137 0.14 0.217 0.25 0.242 0.33 0.025 0.09 0.02 0.17-0.016 0.27-0.036 0.09-0.146 0.23-0.329 0.41l-1.136 1.14c-0.327 0.32-0.548 0.52-0.663 0.6-0.086 0.06-0.159 0.08-0.219 0.08-0.059-0.01-0.117-0.04-0.173-0.1-0.061-0.06-0.117-0.15-0.169-0.26l-0.166 0.07 0.533 1.26 0.139 0.13zm7.998 4c-0.069-0.54-0.124-0.87-0.166-0.98-0.062-0.17-0.16-0.32-0.292-0.46-0.205-0.2-0.445-0.3-0.719-0.29-0.273 0-0.525 0.12-0.754 0.35-0.145 0.15-0.238 0.3-0.279 0.48-0.059 0.23-0.043 0.52 0.047 0.87s0.297 0.88 0.621 1.57l-0.117 0.12c-0.296 0.3-0.546 0.45-0.751 0.47-0.204 0.02-0.396-0.07-0.576-0.25-0.136-0.13-0.208-0.28-0.214-0.43-9e-3 -0.16 0.034-0.28 0.13-0.38l0.194-0.18c0.1-0.1 0.151-0.2 0.155-0.31 3e-3 -0.1-0.037-0.19-0.119-0.28-0.08-0.08-0.174-0.11-0.281-0.11-0.107 0.01-0.209 0.06-0.306 0.16-0.187 0.18-0.262 0.45-0.228 0.79 0.035 0.35 0.224 0.7 0.568 1.04 0.264 0.26 0.525 0.44 0.783 0.52 0.194 0.06 0.393 0.04 0.597-0.04 0.132-0.05 0.342-0.22 0.629-0.51l1.01-1.01c0.283-0.28 0.462-0.45 0.537-0.5 0.075-0.06 0.135-0.08 0.182-0.08 0.046 0 0.086 0.02 0.118 0.05 0.035 0.04 0.058 0.08 0.068 0.12 0.018 0.07 0.026 0.24 0.026 0.5l0.182-0.18c0.082-0.57 0.013-0.96-0.208-1.19-0.106-0.1-0.227-0.15-0.363-0.14s-0.294 0.11-0.474 0.28zm-0.211 0.21-1.133 1.13c-0.197-0.45-0.316-0.75-0.357-0.9-0.075-0.27-0.098-0.49-0.068-0.67s0.107-0.33 0.231-0.45c0.155-0.16 0.331-0.24 0.527-0.25s0.354 0.05 0.475 0.17c0.165 0.16 0.273 0.49 0.325 0.97zm-1.231 5.39 0.977-0.97 0.694 0.69 0.228-0.23-0.695-0.69 1.928-1.93c0.192-0.19 0.35-0.29 0.472-0.31 0.122-0.01 0.227 0.03 0.313 0.12 0.072 0.07 0.119 0.16 0.142 0.27 0.022 0.11 9e-3 0.23-0.041 0.35l0.127 0.13c0.136-0.29 0.188-0.56 0.157-0.8-0.031-0.25-0.121-0.44-0.268-0.59-0.099-0.1-0.224-0.17-0.375-0.21-0.15-0.04-0.299-0.03-0.448 0.03-0.148 0.05-0.329 0.19-0.543 0.4l-2 2-0.47-0.47-0.107 0.11c0.071 0.17 0.112 0.37 0.123 0.61 0.011 0.23-0.013 0.48-0.071 0.73-0.033 0.13-0.114 0.35-0.244 0.66zm1.04 2.37c0.091 0.09 0.2 0.14 0.328 0.14s0.237-0.05 0.328-0.14 0.137-0.2 0.138-0.33c1e-3 -0.12-0.044-0.23-0.135-0.33-0.091-0.09-0.201-0.13-0.331-0.13s-0.24 0.04-0.331 0.13c-0.091 0.1-0.136 0.2-0.136 0.33s0.046 0.24 0.139 0.33zm1.824-1.28 2.389-2.39c0.186-0.19 0.324-0.3 0.412-0.33 0.089-0.04 0.175-0.04 0.258-0.02 0.084 0.02 0.196 0.1 0.336 0.25l0.117-0.12-1.444-1.45-0.117 0.12c0.145 0.15 0.228 0.26 0.25 0.34 0.021 0.07 0.014 0.16-0.021 0.25-0.036 0.1-0.146 0.24-0.33 0.42l-1.145 1.15c-0.323 0.32-0.541 0.52-0.656 0.59-0.084 0.06-0.156 0.08-0.216 0.08-0.059-0.01-0.117-0.04-0.174-0.1-0.06-0.06-0.117-0.15-0.172-0.27l-0.162 0.08 0.532 1.26zm0.233 3.34 2.957-2.96 0.068 1.45c0.013 0.31 0.013 0.49 0 0.56-8e-3 0.04-0.026 0.07-0.052 0.1-0.043 0.04-0.098 0.06-0.165 0.06-0.067-0.01-0.144-0.05-0.231-0.13l-0.104 0.11 1.292 1.29 0.104-0.1c-0.173-0.19-0.294-0.36-0.362-0.53s-0.109-0.38-0.122-0.65l-0.058-1.47 1.727-0.2c0.478-0.05 0.789-0.08 0.934-0.08 0.206 0 0.363 0.03 0.471 0.08 0.076 0.03 0.181 0.11 0.315 0.25l0.117-0.12-1.445-1.44-0.116 0.11c0.08 0.09 0.123 0.16 0.129 0.21 7e-3 0.05-0.01 0.1-0.052 0.14-0.049 0.05-0.173 0.08-0.37 0.11l-2.077 0.25 0.987-0.99c0.192-0.19 0.333-0.3 0.42-0.34 0.088-0.03 0.17-0.03 0.245-0.01 0.076 0.02 0.198 0.12 0.367 0.28l0.117-0.11-1.513-1.52-0.116 0.12c0.151 0.15 0.246 0.28 0.285 0.4 0.022 0.06 0.02 0.14-6e-3 0.21-0.039 0.1-0.146 0.24-0.322 0.42l-2.706 2.71c-0.345 0.34-0.563 0.54-0.654 0.6-0.092 0.07-0.17 0.09-0.234 0.09-0.064-0.01-0.124-0.04-0.18-0.09-0.046-0.05-0.096-0.14-0.15-0.26l-0.168 0.05 0.519 1.25z"/>
</g>
<g clip-path="url(#i)">
<path d="m116.38 268.54-1.17-1.17-3.55 0.56c-0.1-0.11-0.19-0.2-0.26-0.27l-0.09-0.09c-0.04-0.03-0.07-0.06-0.11-0.1l1.28-1.28c0.28-0.27 0.48-0.41 0.61-0.42 0.17-0.01 0.34 0.06 0.51 0.23l0.17 0.17 0.12-0.12-1.88-1.89-0.12 0.12 0.16 0.17c0.19 0.18 0.26 0.38 0.22 0.58-0.02 0.11-0.16 0.29-0.41 0.54l-2.84 2.85c-0.28 0.27-0.48 0.42-0.61 0.42-0.18 0.01-0.35-0.06-0.52-0.23l-0.17-0.17-0.12 0.12 1.61 1.61c0.47 0.46 0.84 0.77 1.13 0.93 0.29 0.15 0.61 0.21 0.94 0.19 0.34-0.03 0.64-0.17 0.89-0.43 0.27-0.27 0.42-0.59 0.44-0.96 0.02-0.38-0.11-0.79-0.4-1.25l2.17-0.35c0.5-0.08 0.87-0.1 1.12-0.04 0.24 0.05 0.5 0.19 0.76 0.4zm-5.38-0.86l0.1 0.1c0.04 0.03 0.06 0.06 0.08 0.08 0.42 0.42 0.65 0.82 0.68 1.22 0.03 0.39-0.1 0.73-0.38 1.01-0.27 0.28-0.58 0.41-0.93 0.41-0.34 0-0.65-0.14-0.94-0.42-0.12-0.13-0.27-0.32-0.44-0.57zm4.22 3.4c0.44-0.44 0.89-0.68 1.36-0.72 0.47-0.03 0.84 0.1 1.14 0.39 0.19 0.19 0.31 0.42 0.34 0.67 0.04 0.25-0.02 0.55-0.18 0.91l0.16 0.04c0.25-0.35 0.39-0.75 0.42-1.21 0.02-0.46-0.13-0.86-0.46-1.19-0.36-0.35-0.8-0.52-1.33-0.5-0.54 0.03-1.04 0.27-1.51 0.74-0.51 0.51-0.77 1.04-0.8 1.58-0.02 0.55 0.17 1.02 0.56 1.41 0.33 0.34 0.72 0.5 1.15 0.5 0.43-0.01 0.83-0.2 1.2-0.56zm-0.19 0.19 1.38 1.38c-0.21 0.17-0.36 0.29-0.47 0.33-0.18 0.07-0.36 0.08-0.53 0.04-0.18-0.03-0.33-0.11-0.44-0.23-0.18-0.18-0.27-0.41-0.27-0.69-0.01-0.28 0.1-0.56 0.33-0.83zm5.84 4.01c0.31-0.47 0.45-0.93 0.43-1.37-0.02-0.45-0.18-0.81-0.46-1.09-0.34-0.34-0.77-0.49-1.31-0.46-0.53 0.03-1.04 0.29-1.52 0.77-0.47 0.47-0.71 0.99-0.72 1.56-0.02 0.57 0.17 1.05 0.56 1.44 0.29 0.29 0.61 0.45 0.95 0.49 0.34 0.03 0.6-0.04 0.77-0.2 0.08-0.09 0.12-0.18 0.12-0.28-0.01-0.11-0.05-0.21-0.15-0.3-0.13-0.13-0.27-0.18-0.41-0.17-0.08 0.01-0.2 0.07-0.34 0.19-0.13 0.11-0.28 0.17-0.42 0.16s-0.28-0.08-0.41-0.22c-0.22-0.21-0.31-0.47-0.28-0.76 0.03-0.39 0.23-0.76 0.57-1.1 0.36-0.36 0.76-0.58 1.21-0.68 0.44-0.1 0.81 0 1.11 0.3 0.21 0.21 0.33 0.47 0.35 0.79 0.02 0.21-0.04 0.51-0.19 0.88zm-2.24 4.74 2.17-2.18c-0.02 0.51 0 0.87 0.07 1.08 0.06 0.22 0.17 0.4 0.31 0.54 0.17 0.16 0.36 0.26 0.57 0.29 0.22 0.03 0.45-0.03 0.71-0.17 0.18-0.09 0.45-0.33 0.82-0.7l1.05-1.05c0.19-0.19 0.33-0.3 0.43-0.34 0.08-0.03 0.16-0.03 0.24-0.01s0.19 0.1 0.33 0.24l0.12-0.12-1.46-1.46-0.12 0.12 0.07 0.07c0.14 0.14 0.21 0.25 0.22 0.35s-0.01 0.2-0.07 0.3c-0.03 0.04-0.13 0.15-0.3 0.31l-1.05 1.06c-0.32 0.32-0.55 0.52-0.69 0.58-0.13 0.07-0.26 0.1-0.39 0.07-0.12-0.02-0.24-0.08-0.34-0.19-0.11-0.1-0.19-0.24-0.25-0.41-0.05-0.17-0.08-0.42-0.07-0.76l1.57-1.57c0.21-0.2 0.34-0.31 0.42-0.34 0.07-0.03 0.15-0.03 0.25 0 0.09 0.03 0.22 0.12 0.37 0.27l0.12-0.12-1.48-1.47-0.11 0.12c0.13 0.13 0.21 0.25 0.25 0.37 0.02 0.06 0.01 0.14-0.02 0.23-0.04 0.08-0.15 0.22-0.34 0.41l-2.69 2.69c-0.34 0.34-0.55 0.54-0.65 0.6-0.09 0.06-0.17 0.09-0.23 0.08-0.06 0-0.12-0.03-0.18-0.09-0.04-0.05-0.1-0.14-0.17-0.27l-0.16 0.07 0.53 1.25zm4.04 2.71 0.98-0.98 0.69 0.69 0.23-0.22-0.7-0.7 1.93-1.93c0.19-0.19 0.35-0.29 0.47-0.3 0.13-0.01 0.23 0.02 0.32 0.11 0.07 0.07 0.12 0.16 0.14 0.27 0.02 0.12 0.01 0.23-0.04 0.36l0.12 0.12c0.14-0.29 0.19-0.55 0.16-0.8-0.03-0.24-0.12-0.44-0.27-0.59-0.1-0.1-0.22-0.17-0.37-0.21s-0.3-0.03-0.45 0.03-0.33 0.19-0.54 0.41l-2 2-0.47-0.47-0.11 0.1c0.07 0.17 0.11 0.37 0.12 0.61s-0.01 0.48-0.07 0.74c-0.03 0.13-0.11 0.35-0.24 0.66zm3.76 1.98 1.01-1.01-0.1-0.11c-0.4 0.23-0.73 0.34-0.97 0.33s-0.46-0.12-0.66-0.32c-0.16-0.15-0.24-0.31-0.25-0.49-0.01-0.17 0.03-0.3 0.13-0.4 0.12-0.12 0.26-0.19 0.41-0.21 0.16-0.02 0.39 0.02 0.69 0.13l0.71 0.24c0.65 0.23 1.15 0.16 1.5-0.19 0.27-0.27 0.39-0.59 0.35-0.96s-0.18-0.68-0.44-0.93c-0.18-0.18-0.42-0.36-0.72-0.53-0.09-0.05-0.16-0.1-0.21-0.14-0.05-0.05-0.06-0.12-0.03-0.2l-0.11-0.11-1.06 1.06 0.11 0.11c0.36-0.24 0.71-0.36 1.03-0.34 0.33 0.02 0.6 0.13 0.81 0.35 0.15 0.14 0.22 0.31 0.23 0.49s-0.05 0.34-0.17 0.46c-0.15 0.15-0.33 0.22-0.54 0.22s-0.54-0.09-1.01-0.24c-0.47-0.16-0.82-0.23-1.04-0.2s-0.43 0.13-0.61 0.32c-0.25 0.25-0.37 0.54-0.37 0.87 0.01 0.33 0.14 0.63 0.41 0.9 0.11 0.11 0.28 0.23 0.5 0.35 0.14 0.07 0.23 0.13 0.27 0.17 0.03 0.03 0.05 0.07 0.06 0.1 0 0.04-0.01 0.09-0.04 0.17zm0.66 0.48 1.25 1.25 0.12-0.12c-0.11-0.13-0.16-0.22-0.17-0.29 0-0.07 0.03-0.13 0.09-0.19 0.06-0.07 0.16-0.13 0.3-0.19l2.34-1.07-0.75 2.03-0.61 0.27c-0.18 0.07-0.34 0.1-0.47 0.06-0.08-0.02-0.19-0.09-0.32-0.21l-0.12 0.12 1.41 1.42 0.12-0.12c-0.15-0.17-0.23-0.31-0.24-0.42-0.01-0.08 0.02-0.15 0.1-0.23 0.04-0.04 0.09-0.08 0.16-0.11l2.38-1.03-1.02 2.27c-0.07 0.16-0.15 0.28-0.22 0.35-0.04 0.04-0.09 0.05-0.17 0.04-0.07-0.01-0.17-0.07-0.3-0.19l-0.12 0.12 0.94 0.94 0.12-0.12c-0.16-0.22-0.18-0.48-0.04-0.8l1.57-3.55-0.13-0.14-2.64 1.16 1.03-2.77-0.12-0.12-3.46 1.55c-0.22 0.09-0.38 0.14-0.5 0.13-0.12 0-0.25-0.06-0.41-0.16zm3.99 7.28c0.09 0.09 0.2 0.14 0.33 0.14s0.24-0.05 0.33-0.14 0.13-0.2 0.14-0.33c0-0.13-0.05-0.24-0.14-0.33s-0.2-0.14-0.33-0.14-0.24 0.05-0.33 0.14-0.14 0.2-0.14 0.33 0.05 0.24 0.14 0.33zm1.83-1.29 2.38-2.38c0.19-0.19 0.33-0.3 0.42-0.34 0.09-0.03 0.17-0.04 0.26-0.01 0.08 0.02 0.19 0.1 0.33 0.24l0.12-0.12-1.45-1.44-0.11 0.12c0.14 0.14 0.23 0.25 0.25 0.33s0.01 0.17-0.02 0.26c-0.04 0.09-0.15 0.23-0.33 0.42l-1.15 1.14c-0.32 0.32-0.54 0.52-0.66 0.6-0.08 0.05-0.15 0.08-0.21 0.07-0.06 0-0.12-0.03-0.17-0.09-0.07-0.06-0.12-0.15-0.18-0.27l-0.16 0.07 0.53 1.26zm2.83 2.83 1.01-1.01-0.11-0.11c-0.4 0.24-0.72 0.35-0.96 0.34-0.25-0.02-0.47-0.12-0.67-0.32-0.15-0.15-0.23-0.32-0.24-0.49-0.02-0.17 0.02-0.31 0.12-0.41 0.12-0.12 0.26-0.19 0.42-0.2 0.15-0.03 0.38 0.02 0.69 0.12l0.7 0.25c0.66 0.22 1.16 0.16 1.51-0.19 0.27-0.27 0.39-0.59 0.35-0.96s-0.19-0.68-0.44-0.94c-0.18-0.18-0.42-0.35-0.72-0.52-0.1-0.05-0.16-0.1-0.21-0.15s-0.06-0.11-0.03-0.2l-0.11-0.1-1.06 1.06 0.11 0.1c0.36-0.24 0.7-0.35 1.03-0.33 0.32 0.01 0.59 0.13 0.8 0.34 0.15 0.15 0.23 0.32 0.24 0.5 0 0.18-0.06 0.33-0.18 0.46-0.15 0.14-0.33 0.22-0.53 0.21-0.21 0-0.55-0.08-1.02-0.24s-0.81-0.22-1.04-0.19c-0.22 0.02-0.42 0.13-0.61 0.32-0.24 0.24-0.36 0.53-0.36 0.86 0 0.34 0.14 0.64 0.4 0.9 0.12 0.12 0.29 0.24 0.5 0.35 0.15 0.08 0.24 0.14 0.27 0.17 0.04 0.04 0.06 0.07 0.06 0.11 0.01 0.03-0.01 0.09-0.03 0.17zm2.53 2.54 1.02-1.01-0.11-0.11c-0.4 0.24-0.72 0.35-0.97 0.33-0.24-0.01-0.46-0.12-0.66-0.32-0.15-0.15-0.23-0.31-0.25-0.48-0.01-0.18 0.03-0.31 0.13-0.41 0.12-0.12 0.26-0.19 0.42-0.21 0.15-0.02 0.38 0.03 0.69 0.13l0.7 0.24c0.65 0.23 1.16 0.17 1.51-0.18 0.27-0.27 0.38-0.59 0.34-0.96-0.03-0.37-0.18-0.69-0.43-0.94-0.19-0.18-0.43-0.36-0.72-0.52-0.1-0.05-0.17-0.1-0.21-0.15-0.05-0.05-0.06-0.11-0.03-0.2l-0.11-0.11-1.06 1.07 0.1 0.1c0.37-0.24 0.71-0.35 1.04-0.34 0.32 0.02 0.59 0.14 0.8 0.35 0.15 0.15 0.23 0.31 0.23 0.5 0.01 0.18-0.05 0.33-0.17 0.45-0.15 0.15-0.33 0.23-0.53 0.22-0.21 0-0.55-0.08-1.02-0.24s-0.81-0.22-1.04-0.19c-0.22 0.02-0.42 0.13-0.61 0.32-0.25 0.24-0.37 0.53-0.36 0.86 0 0.33 0.14 0.63 0.4 0.9 0.12 0.12 0.28 0.23 0.5 0.35 0.14 0.08 0.23 0.14 0.27 0.17 0.04 0.04 0.05 0.07 0.06 0.11 0 0.03-0.01 0.09-0.03 0.16zm2.33-0.09c0.44-0.44 0.89-0.68 1.36-0.72 0.46-0.03 0.84 0.1 1.14 0.39 0.19 0.19 0.31 0.42 0.34 0.67 0.04 0.25-0.02 0.55-0.18 0.91l0.16 0.04c0.25-0.35 0.39-0.75 0.41-1.21 0.03-0.46-0.12-0.86-0.45-1.19-0.36-0.35-0.8-0.52-1.34-0.5-0.53 0.03-1.03 0.27-1.5 0.74-0.51 0.51-0.77 1.04-0.8 1.58-0.02 0.55 0.16 1.02 0.56 1.41 0.33 0.34 0.72 0.5 1.15 0.49 0.43 0 0.83-0.19 1.2-0.55zm-0.19 0.19 1.38 1.38c-0.21 0.17-0.36 0.29-0.48 0.33-0.17 0.07-0.35 0.08-0.52 0.04-0.18-0.03-0.33-0.11-0.44-0.23-0.18-0.18-0.27-0.41-0.28-0.69 0-0.28 0.11-0.56 0.34-0.83zm3 3.78c-0.07 0.76 0.05 1.31 0.36 1.62 0.17 0.16 0.35 0.26 0.54 0.3 0.2 0.04 0.43-0.01 0.68-0.12 0.18-0.08 0.41-0.26 0.67-0.53l1.27-1.27c0.19-0.19 0.33-0.3 0.43-0.33 0.08-0.03 0.16-0.04 0.24-0.02 0.09 0.03 0.2 0.11 0.34 0.25l0.12-0.11-1.47-1.47-0.12 0.11 0.06 0.06c0.14 0.14 0.22 0.26 0.23 0.36 0.01 0.09-0.01 0.2-0.07 0.3-0.02 0.04-0.12 0.15-0.29 0.32l-1.22 1.21c-0.27 0.28-0.5 0.44-0.69 0.49-0.2 0.05-0.38-0.01-0.54-0.17-0.26-0.26-0.38-0.66-0.35-1.2l1.57-1.56c0.2-0.2 0.33-0.32 0.41-0.34 0.09-0.03 0.18-0.04 0.26-0.01 0.08 0.02 0.2 0.11 0.37 0.28l0.11-0.12-1.47-1.47-0.11 0.12 0.06 0.06c0.15 0.15 0.22 0.29 0.19 0.42-0.02 0.13-0.14 0.31-0.36 0.52l-1.1 1.11c-0.36 0.35-0.58 0.56-0.68 0.62-0.09 0.07-0.17 0.09-0.23 0.09-0.06-0.01-0.12-0.04-0.18-0.09-0.06-0.07-0.12-0.15-0.17-0.27l-0.16 0.07 0.53 1.26 0.14 0.14zm3.69 4.94 1.01-1.01-0.11-0.11c-0.4 0.24-0.72 0.35-0.96 0.34-0.25-0.02-0.47-0.12-0.67-0.32-0.15-0.15-0.23-0.32-0.24-0.49-0.02-0.17 0.02-0.31 0.12-0.41 0.12-0.12 0.26-0.19 0.42-0.2 0.15-0.02 0.38 0.02 0.69 0.12l0.7 0.25c0.66 0.22 1.16 0.16 1.51-0.19 0.27-0.27 0.39-0.59 0.35-0.96s-0.19-0.68-0.44-0.94c-0.18-0.18-0.42-0.35-0.72-0.52-0.1-0.05-0.16-0.1-0.21-0.15s-0.06-0.11-0.03-0.2l-0.11-0.1-1.06 1.06 0.11 0.1c0.36-0.24 0.7-0.35 1.03-0.33 0.32 0.01 0.59 0.13 0.8 0.34 0.15 0.15 0.23 0.32 0.24 0.5 0 0.18-0.05 0.33-0.18 0.46-0.15 0.14-0.33 0.22-0.53 0.21-0.21 0-0.55-0.08-1.02-0.24s-0.81-0.22-1.03-0.19c-0.23 0.02-0.43 0.13-0.62 0.32-0.24 0.24-0.36 0.53-0.36 0.86 0 0.34 0.14 0.64 0.4 0.9 0.12 0.12 0.29 0.24 0.5 0.35 0.15 0.08 0.24 0.14 0.27 0.17 0.04 0.04 0.06 0.07 0.06 0.11 0.01 0.03-0.01 0.09-0.03 0.17zm5.19 1.34c0.31-0.48 0.46-0.93 0.43-1.38-0.02-0.44-0.17-0.81-0.46-1.09-0.33-0.34-0.77-0.49-1.3-0.46-0.54 0.03-1.05 0.29-1.53 0.77-0.47 0.47-0.71 0.99-0.72 1.56-0.02 0.57 0.17 1.05 0.56 1.44 0.29 0.29 0.61 0.45 0.95 0.49 0.35 0.03 0.6-0.04 0.77-0.2 0.08-0.08 0.12-0.18 0.12-0.28s-0.05-0.2-0.15-0.3c-0.13-0.13-0.26-0.18-0.41-0.17-0.08 0.01-0.19 0.08-0.33 0.19-0.14 0.12-0.28 0.17-0.43 0.16-0.14-0.01-0.27-0.08-0.41-0.22-0.21-0.21-0.31-0.47-0.28-0.76 0.04-0.39 0.23-0.75 0.58-1.1 0.35-0.36 0.75-0.58 1.2-0.68 0.44-0.1 0.81 0 1.11 0.3 0.21 0.21 0.33 0.47 0.35 0.79 0.02 0.22-0.04 0.51-0.19 0.89zm-2.24 4.73 2.18-2.17c-0.03 0.5-0.01 0.86 0.06 1.07 0.07 0.22 0.17 0.4 0.31 0.54 0.17 0.17 0.36 0.27 0.57 0.29 0.22 0.03 0.45-0.02 0.71-0.17 0.18-0.09 0.46-0.33 0.82-0.69l1.05-1.05c0.19-0.19 0.34-0.31 0.44-0.35 0.07-0.03 0.15-0.03 0.23-0.01s0.19 0.1 0.33 0.24l0.12-0.12-1.46-1.46-0.12 0.12 0.07 0.07c0.14 0.14 0.21 0.26 0.22 0.35 0.02 0.1-0.01 0.2-0.07 0.3-0.03 0.04-0.13 0.15-0.29 0.32l-1.06 1.05c-0.32 0.32-0.55 0.52-0.69 0.59-0.13 0.07-0.26 0.09-0.38 0.07-0.13-0.03-0.24-0.09-0.35-0.19-0.1-0.11-0.19-0.25-0.24-0.42-0.06-0.17-0.09-0.42-0.08-0.75l1.58-1.57c0.2-0.21 0.34-0.32 0.41-0.35s0.16-0.03 0.25 0c0.1 0.03 0.22 0.12 0.37 0.27l0.12-0.12-1.48-1.47-0.11 0.12c0.13 0.13 0.21 0.25 0.25 0.37 0.02 0.07 0.01 0.14-0.02 0.23-0.04 0.09-0.15 0.22-0.33 0.41l-2.69 2.69c-0.34 0.34-0.56 0.54-0.65 0.6-0.1 0.06-0.18 0.09-0.24 0.08-0.06 0-0.12-0.03-0.17-0.09-0.05-0.04-0.11-0.13-0.17-0.27l-0.16 0.07 0.52 1.25zm8.38 0.01c-0.06-0.54-0.12-0.87-0.16-0.99-0.06-0.17-0.16-0.32-0.29-0.45-0.21-0.21-0.45-0.3-0.72-0.3-0.28 0.01-0.53 0.13-0.76 0.36-0.14 0.14-0.23 0.3-0.28 0.47-0.05 0.24-0.04 0.53 0.05 0.88s0.3 0.87 0.62 1.57l-0.11 0.12c-0.3 0.29-0.55 0.45-0.76 0.47-0.2 0.01-0.39-0.07-0.57-0.25-0.14-0.14-0.21-0.28-0.22-0.43 0-0.16 0.04-0.29 0.13-0.38l0.2-0.18c0.1-0.1 0.15-0.2 0.15-0.31 0.01-0.1-0.03-0.2-0.12-0.28-0.08-0.08-0.17-0.12-0.28-0.11-0.1 0-0.21 0.05-0.3 0.15-0.19 0.19-0.26 0.45-0.23 0.8s0.22 0.69 0.57 1.04c0.26 0.26 0.52 0.43 0.78 0.51 0.19 0.06 0.39 0.05 0.6-0.03 0.13-0.05 0.34-0.23 0.63-0.51l1.01-1.01c0.28-0.29 0.46-0.45 0.53-0.51 0.08-0.05 0.14-0.08 0.19-0.07 0.04 0 0.08 0.02 0.11 0.05 0.04 0.04 0.06 0.07 0.07 0.12 0.02 0.07 0.03 0.24 0.03 0.5l0.18-0.19c0.08-0.56 0.01-0.96-0.21-1.18-0.1-0.1-0.23-0.15-0.36-0.14-0.14 0.01-0.3 0.1-0.48 0.28zm-0.21 0.21-1.13 1.13c-0.2-0.45-0.31-0.76-0.36-0.91-0.07-0.26-0.09-0.48-0.06-0.66s0.1-0.33 0.23-0.45c0.15-0.16 0.33-0.24 0.52-0.25 0.2-0.01 0.36 0.04 0.48 0.17 0.16 0.16 0.27 0.48 0.32 0.97zm0.28 4.48 1.96-1.96c0.27-0.27 0.48-0.42 0.61-0.43 0.18-0.02 0.33 0.04 0.47 0.18l0.27 0.27 0.11-0.12-1.77-1.78-0.12 0.12 0.13 0.13c0.09 0.09 0.15 0.19 0.18 0.31 0.02 0.11 0.01 0.22-0.03 0.32-0.05 0.1-0.18 0.26-0.39 0.47l-1.95 1.95-0.58-0.58-0.24 0.24 0.58 0.58-0.19 0.19c-0.3 0.3-0.5 0.6-0.61 0.9s-0.13 0.61-0.06 0.93 0.22 0.61 0.47 0.85c0.22 0.23 0.51 0.36 0.84 0.41 0.23 0.02 0.4-0.02 0.52-0.14 0.06-0.07 0.1-0.16 0.1-0.27s-0.03-0.2-0.1-0.27c-0.05-0.05-0.12-0.08-0.21-0.1s-0.23-0.01-0.43 0.03c-0.2 0.03-0.35 0.04-0.46 0.01-0.11-0.02-0.2-0.08-0.29-0.16-0.1-0.1-0.15-0.21-0.17-0.33s0.02-0.26 0.1-0.4 0.35-0.44 0.81-0.91l0.22-0.21 0.76 0.77 0.24-0.24zm0.67 3.08 0.97-0.97 0.7 0.69 0.23-0.23-0.7-0.69 1.93-1.93c0.19-0.19 0.35-0.29 0.47-0.3 0.12-0.02 0.23 0.02 0.32 0.11 0.07 0.07 0.11 0.16 0.14 0.27 0.02 0.11 0.01 0.23-0.04 0.35l0.12 0.13c0.14-0.29 0.19-0.55 0.16-0.8-0.03-0.24-0.12-0.44-0.27-0.59-0.1-0.1-0.22-0.17-0.37-0.21s-0.3-0.03-0.45 0.03-0.33 0.19-0.54 0.41l-2 1.99-0.47-0.47-0.11 0.11c0.07 0.17 0.11 0.37 0.12 0.61s-0.01 0.48-0.07 0.74c-0.03 0.13-0.11 0.35-0.24 0.65z"/>
</g>
<path d="m173.93 266.45 1.74-1.74 0.97 0.97c0.25 0.25 0.38 0.45 0.39 0.61 0.01 0.22-0.1 0.45-0.34 0.72l0.12 0.12 1.53-1.53-0.12-0.12c-0.24 0.18-0.41 0.29-0.5 0.32-0.11 0.03-0.24 0.03-0.37-0.02-0.13-0.04-0.29-0.16-0.47-0.34l-0.97-0.97 1.45-1.45c0.2-0.19 0.32-0.3 0.38-0.33 0.06-0.02 0.13-0.02 0.19-0.01 0.07 0.02 0.17 0.09 0.29 0.21l0.74 0.75c0.25 0.25 0.42 0.45 0.49 0.59 0.08 0.15 0.12 0.33 0.12 0.53 0 0.27-0.06 0.61-0.19 1.02l0.13 0.13 0.72-1.48-3.39-3.39-0.12 0.12 0.16 0.15c0.1 0.11 0.17 0.23 0.22 0.37 0.03 0.11 0.03 0.21-0.02 0.3-0.04 0.09-0.17 0.25-0.38 0.46l-2.86 2.86c-0.28 0.28-0.48 0.42-0.6 0.43-0.17 0.01-0.34-0.07-0.52-0.26l-0.16-0.15-0.12 0.12 3.39 3.39 1.01-0.92-0.12-0.12c-0.28 0.18-0.49 0.29-0.63 0.32-0.14 0.04-0.29 0.02-0.44-0.04-0.12-0.06-0.29-0.19-0.51-0.41zm5.53 2.06c-0.07 0.77 0.05 1.31 0.36 1.63 0.17 0.16 0.35 0.26 0.54 0.3 0.2 0.03 0.43-0.01 0.68-0.12 0.18-0.09 0.4-0.26 0.67-0.53l1.27-1.27c0.19-0.19 0.33-0.3 0.43-0.34 0.08-0.03 0.16-0.03 0.24-0.01 0.09 0.03 0.2 0.11 0.34 0.25l0.12-0.12-1.47-1.47-0.12 0.12 0.06 0.06c0.14 0.14 0.22 0.26 0.23 0.36 0.01 0.09-0.01 0.19-0.07 0.3-0.02 0.04-0.12 0.14-0.29 0.32l-1.22 1.21c-0.27 0.27-0.5 0.43-0.69 0.49-0.2 0.05-0.38-0.01-0.54-0.18-0.26-0.25-0.38-0.65-0.35-1.19l1.57-1.56c0.2-0.21 0.33-0.32 0.41-0.34 0.09-0.03 0.18-0.04 0.26-0.01 0.08 0.02 0.2 0.11 0.37 0.27l0.11-0.11-1.47-1.47-0.11 0.11 0.06 0.07c0.15 0.15 0.22 0.29 0.19 0.42-0.02 0.13-0.14 0.3-0.36 0.52l-1.1 1.1c-0.36 0.36-0.58 0.57-0.68 0.63-0.09 0.06-0.17 0.09-0.23 0.09-0.06-0.01-0.12-0.04-0.18-0.1s-0.12-0.15-0.17-0.26l-0.16 0.07 0.53 1.25 0.14 0.14zm4.54 1.85c-0.27-0.09-0.54-0.11-0.79-0.05-0.26 0.06-0.49 0.19-0.68 0.38-0.29 0.3-0.43 0.66-0.42 1.1 0.01 0.43 0.18 0.82 0.53 1.17 0.28 0.28 0.6 0.46 0.94 0.52l0.63 0.63c0.1 0.1 0.15 0.15 0.17 0.16s0.04 0.01 0.06 0c0.04 0 0.08-0.03 0.13-0.08 0.05-0.06 0.09-0.1 0.1-0.13 0-0.02 0-0.04-0.01-0.06-0.01-0.03-0.06-0.08-0.15-0.18l-0.39-0.38c0.28-0.04 0.54-0.18 0.78-0.42 0.28-0.28 0.41-0.62 0.39-1.03-0.01-0.41-0.2-0.79-0.56-1.15-0.14-0.14-0.32-0.27-0.51-0.38-0.02-0.18-0.01-0.32 0.02-0.41 0.03-0.1 0.06-0.17 0.11-0.21 0.03-0.04 0.09-0.05 0.16-0.05s0.16 0.04 0.28 0.13c0.07 0.05 0.23 0.2 0.48 0.43 0.46 0.44 0.76 0.71 0.91 0.82 0.23 0.18 0.47 0.26 0.71 0.26s0.45-0.09 0.62-0.27c0.25-0.24 0.36-0.58 0.35-1.03-0.02-0.65-0.31-1.25-0.85-1.79-0.42-0.42-0.86-0.68-1.34-0.78-0.27-0.05-0.46-0.02-0.58 0.1-0.05 0.05-0.09 0.11-0.12 0.19-0.04 0.11-0.08 0.3-0.11 0.56 0 0.03-0.01 0.26-0.02 0.68-0.18-0.05-0.32-0.06-0.42-0.06-0.09 0.01-0.18 0.05-0.25 0.11-0.07 0.08-0.13 0.2-0.17 0.36s-0.04 0.45 0 0.86zm-1.26 2.39c-0.16-0.17-0.23-0.36-0.21-0.6 0.02-0.23 0.16-0.48 0.42-0.75 0.35-0.34 0.68-0.53 1.02-0.57 0.26-0.03 0.47 0.04 0.64 0.21s0.24 0.36 0.22 0.59c-0.01 0.23-0.15 0.48-0.42 0.74-0.34 0.35-0.69 0.54-1.03 0.59-0.25 0.03-0.47-0.04-0.64-0.21zm2.31-3.51c0.01-0.21 0.03-0.39 0.08-0.54 0.04-0.14 0.1-0.26 0.18-0.34 0.1-0.1 0.26-0.13 0.46-0.08 0.35 0.08 0.73 0.33 1.14 0.74 0.39 0.39 0.61 0.74 0.66 1.06 0.04 0.33-0.01 0.57-0.17 0.72-0.11 0.11-0.24 0.14-0.4 0.08-0.16-0.07-0.41-0.26-0.75-0.59-0.5-0.47-0.9-0.82-1.2-1.05zm-0.97 8.26 3.94-3.94c0.19-0.19 0.32-0.3 0.41-0.33s0.18-0.04 0.26-0.01c0.09 0.02 0.21 0.11 0.36 0.26l0.12-0.11-1.46-1.46-0.11 0.12c0.13 0.13 0.21 0.24 0.23 0.32 0.03 0.08 0.02 0.16-0.02 0.25-0.04 0.1-0.15 0.24-0.33 0.42l-2.7 2.7c-0.34 0.34-0.55 0.53-0.64 0.6-0.09 0.06-0.17 0.09-0.23 0.08s-0.12-0.03-0.17-0.09c-0.06-0.05-0.11-0.14-0.16-0.26l-0.17 0.06 0.52 1.25zm1.54 1.55c0.09 0.09 0.2 0.13 0.33 0.13s0.24-0.04 0.33-0.13 0.14-0.2 0.14-0.33-0.05-0.24-0.14-0.33-0.2-0.14-0.33-0.14-0.24 0.05-0.33 0.14-0.14 0.2-0.14 0.33 0.05 0.24 0.14 0.33zm1.83-1.29 2.39-2.39c0.18-0.18 0.32-0.29 0.41-0.33 0.09-0.03 0.17-0.04 0.26-0.01 0.08 0.02 0.19 0.1 0.33 0.24l0.12-0.12-1.45-1.44-0.11 0.12c0.14 0.14 0.23 0.25 0.25 0.33s0.01 0.16-0.02 0.26c-0.04 0.09-0.15 0.23-0.33 0.42l-1.15 1.14c-0.32 0.32-0.54 0.52-0.65 0.6-0.09 0.05-0.16 0.08-0.22 0.07-0.06 0-0.12-0.03-0.17-0.09-0.06-0.06-0.12-0.15-0.18-0.27l-0.16 0.07 0.53 1.26zm2.71 2.71 1.01-1.01-0.11-0.11c-0.4 0.24-0.72 0.35-0.96 0.33-0.25-0.01-0.47-0.12-0.67-0.31-0.15-0.16-0.23-0.32-0.25-0.49-0.01-0.17 0.03-0.31 0.13-0.41 0.12-0.12 0.26-0.19 0.42-0.21 0.15-0.02 0.38 0.03 0.69 0.13l0.7 0.24c0.66 0.23 1.16 0.17 1.51-0.18 0.27-0.27 0.38-0.59 0.35-0.96-0.04-0.37-0.19-0.69-0.44-0.94-0.18-0.18-0.42-0.36-0.72-0.52-0.1-0.05-0.17-0.1-0.21-0.15-0.05-0.05-0.06-0.11-0.03-0.2l-0.11-0.11-1.06 1.07 0.11 0.1c0.36-0.24 0.7-0.35 1.03-0.33 0.32 0.01 0.59 0.13 0.8 0.34 0.15 0.15 0.23 0.31 0.24 0.5 0 0.18-0.06 0.33-0.18 0.45-0.15 0.15-0.33 0.23-0.53 0.22-0.21 0-0.55-0.08-1.02-0.24s-0.81-0.22-1.04-0.19c-0.22 0.02-0.42 0.13-0.61 0.32-0.24 0.24-0.36 0.53-0.36 0.86s0.14 0.63 0.4 0.9c0.12 0.12 0.29 0.23 0.5 0.35 0.15 0.08 0.24 0.14 0.27 0.17 0.04 0.04 0.06 0.07 0.06 0.11 0.01 0.03-0.01 0.09-0.03 0.16zm5.19 1.33c0.31-0.47 0.46-0.93 0.43-1.37-0.02-0.45-0.17-0.81-0.46-1.09-0.33-0.34-0.77-0.49-1.3-0.46-0.54 0.03-1.05 0.29-1.53 0.77-0.47 0.47-0.71 0.99-0.72 1.56-0.02 0.57 0.17 1.05 0.56 1.44 0.29 0.29 0.61 0.45 0.95 0.49 0.35 0.03 0.6-0.04 0.77-0.2 0.08-0.09 0.12-0.18 0.12-0.28 0-0.11-0.05-0.21-0.15-0.3-0.13-0.13-0.26-0.18-0.41-0.17-0.08 0.01-0.19 0.07-0.33 0.19s-0.28 0.17-0.43 0.16c-0.14-0.01-0.27-0.08-0.41-0.22-0.22-0.21-0.31-0.47-0.28-0.76 0.04-0.39 0.23-0.76 0.58-1.1 0.35-0.36 0.75-0.58 1.2-0.68 0.44-0.1 0.81 0 1.11 0.3 0.21 0.21 0.33 0.47 0.35 0.79 0.02 0.21-0.04 0.51-0.19 0.88zm-2.24 4.74 2.18-2.18c-0.03 0.51-0.01 0.87 0.06 1.08 0.07 0.22 0.17 0.4 0.31 0.54 0.17 0.16 0.36 0.26 0.57 0.29 0.22 0.03 0.45-0.03 0.71-0.17 0.18-0.09 0.45-0.33 0.82-0.7l1.05-1.05c0.19-0.19 0.34-0.3 0.44-0.34 0.07-0.03 0.15-0.03 0.23-0.01s0.19 0.1 0.33 0.24l0.12-0.12-1.46-1.46-0.12 0.12 0.07 0.07c0.14 0.14 0.21 0.25 0.22 0.35 0.02 0.1-0.01 0.2-0.07 0.3-0.03 0.04-0.13 0.15-0.29 0.31l-1.06 1.06c-0.32 0.32-0.55 0.52-0.69 0.59-0.13 0.06-0.26 0.09-0.39 0.06-0.12-0.02-0.23-0.08-0.34-0.19-0.1-0.1-0.19-0.24-0.24-0.41-0.06-0.17-0.09-0.42-0.08-0.76l1.58-1.57c0.2-0.2 0.34-0.31 0.41-0.34s0.16-0.03 0.25 0c0.1 0.03 0.22 0.12 0.37 0.27l0.12-0.12-1.48-1.47-0.11 0.12c0.13 0.13 0.21 0.25 0.25 0.37 0.02 0.06 0.01 0.14-0.02 0.23-0.04 0.08-0.15 0.22-0.33 0.41l-2.69 2.69c-0.34 0.34-0.56 0.54-0.65 0.6-0.1 0.06-0.18 0.09-0.24 0.08-0.06 0-0.12-0.03-0.18-0.09-0.04-0.05-0.1-0.14-0.16-0.27l-0.16 0.07 0.52 1.25zm5.65 0.13c0.44-0.45 0.9-0.69 1.36-0.72 0.47-0.04 0.85 0.09 1.14 0.38 0.2 0.2 0.31 0.42 0.35 0.67s-0.03 0.56-0.19 0.91l0.17 0.04c0.25-0.34 0.39-0.74 0.41-1.21 0.03-0.46-0.13-0.85-0.45-1.18-0.36-0.36-0.81-0.53-1.34-0.5-0.53 0.02-1.03 0.27-1.5 0.74-0.51 0.51-0.78 1.03-0.8 1.58-0.02 0.54 0.16 1.01 0.56 1.41 0.33 0.33 0.71 0.5 1.15 0.49 0.43-0.01 0.83-0.19 1.2-0.56zm-0.18 0.18 1.37 1.38c-0.2 0.18-0.36 0.29-0.47 0.33-0.17 0.07-0.35 0.09-0.53 0.05-0.17-0.04-0.32-0.12-0.44-0.23-0.18-0.18-0.27-0.41-0.27-0.7 0-0.28 0.11-0.55 0.34-0.83zm5.34 5.39 1.29-1.28c0.27-0.28 0.48-0.42 0.6-0.43 0.18-0.01 0.35 0.07 0.52 0.24l0.17 0.16 0.12-0.12-1.89-1.88-0.12 0.12 0.17 0.16c0.18 0.19 0.26 0.38 0.22 0.58-0.03 0.12-0.17 0.3-0.42 0.55l-2.84 2.84c-0.28 0.28-0.48 0.42-0.6 0.43-0.18 0.01-0.36-0.07-0.52-0.24l-0.17-0.16-0.12 0.12 1.62 1.61c0.39 0.4 0.74 0.67 1.05 0.81 0.31 0.15 0.63 0.2 0.98 0.17 0.35-0.04 0.66-0.19 0.92-0.46 0.36-0.35 0.53-0.76 0.52-1.23-0.01-0.46-0.23-0.91-0.66-1.34-0.11-0.1-0.23-0.21-0.37-0.32s-0.29-0.22-0.47-0.33zm-0.18 0.19c0.14 0.09 0.25 0.18 0.35 0.25 0.1 0.08 0.18 0.15 0.25 0.21 0.22 0.23 0.33 0.51 0.32 0.85s-0.16 0.64-0.43 0.92c-0.19 0.19-0.41 0.33-0.65 0.41-0.24 0.09-0.47 0.1-0.7 0.04-0.22-0.06-0.43-0.18-0.61-0.37-0.11-0.11-0.23-0.27-0.36-0.48zm0.97 5.71 2.18-2.17c-0.03 0.5 0 0.86 0.06 1.07 0.07 0.22 0.17 0.4 0.31 0.54 0.17 0.17 0.36 0.27 0.58 0.29 0.21 0.03 0.45-0.02 0.7-0.17 0.18-0.09 0.46-0.33 0.82-0.69l1.06-1.05c0.18-0.19 0.33-0.31 0.43-0.35 0.07-0.03 0.15-0.03 0.23-0.01s0.19 0.1 0.33 0.24l0.12-0.12-1.46-1.46-0.12 0.12 0.07 0.07c0.14 0.14 0.21 0.26 0.23 0.35 0.01 0.1-0.02 0.2-0.08 0.3-0.03 0.04-0.12 0.15-0.29 0.32l-1.05 1.05c-0.33 0.32-0.56 0.52-0.69 0.59-0.14 0.07-0.27 0.09-0.39 0.07-0.13-0.03-0.24-0.09-0.35-0.19-0.1-0.11-0.18-0.25-0.24-0.42s-0.08-0.42-0.07-0.75l1.57-1.57c0.2-0.21 0.34-0.32 0.41-0.35s0.16-0.03 0.25 0c0.1 0.03 0.22 0.12 0.37 0.27l0.12-0.12-1.47-1.47-0.12 0.12c0.13 0.13 0.21 0.25 0.25 0.37 0.02 0.07 0.01 0.14-0.02 0.23-0.04 0.09-0.15 0.22-0.33 0.41l-2.69 2.69c-0.34 0.34-0.56 0.54-0.65 0.6-0.1 0.06-0.17 0.09-0.24 0.08-0.06 0-0.12-0.03-0.17-0.09-0.05-0.04-0.11-0.13-0.17-0.27l-0.16 0.07 0.52 1.25zm3.27 3.27c0.09 0.09 0.2 0.13 0.33 0.13s0.24-0.04 0.33-0.13 0.13-0.2 0.13-0.33c0.01-0.13-0.04-0.24-0.13-0.33s-0.2-0.14-0.33-0.14-0.24 0.05-0.33 0.14-0.14 0.2-0.14 0.33c0 0.12 0.05 0.23 0.14 0.33zm1.83-1.29 2.38-2.39c0.19-0.18 0.33-0.29 0.42-0.33 0.08-0.03 0.17-0.04 0.25-0.02 0.09 0.03 0.2 0.11 0.34 0.25l0.12-0.12-1.45-1.44-0.11 0.11c0.14 0.15 0.22 0.26 0.25 0.34 0.02 0.08 0.01 0.16-0.03 0.26-0.03 0.09-0.14 0.23-0.32 0.41l-1.15 1.15c-0.32 0.32-0.54 0.52-0.66 0.6-0.08 0.05-0.15 0.08-0.21 0.07s-0.12-0.04-0.18-0.09c-0.06-0.06-0.11-0.15-0.17-0.27l-0.16 0.07 0.53 1.26zm0.25 3.37 3.94-3.95c0.19-0.18 0.33-0.29 0.41-0.33 0.09-0.03 0.18-0.03 0.27-0.01 0.08 0.02 0.21 0.11 0.36 0.27l0.12-0.12-1.46-1.46-0.12 0.12c0.14 0.14 0.22 0.24 0.24 0.32s0.01 0.17-0.02 0.26c-0.04 0.09-0.15 0.23-0.34 0.41l-2.7 2.7c-0.33 0.34-0.54 0.54-0.64 0.6-0.09 0.06-0.17 0.09-0.23 0.08-0.06 0-0.12-0.03-0.17-0.08-0.05-0.06-0.11-0.15-0.16-0.27l-0.17 0.06 0.52 1.25zm3.8 0.69c0.45 0.45 0.98 0.64 1.6 0.57 0.52-0.06 0.97-0.28 1.35-0.66 0.27-0.27 0.47-0.6 0.62-1 0.14-0.4 0.17-0.78 0.09-1.15-0.09-0.36-0.27-0.68-0.55-0.95-0.44-0.45-0.98-0.63-1.6-0.53-0.52 0.07-0.97 0.3-1.35 0.67-0.27 0.28-0.47 0.62-0.61 1.02-0.13 0.4-0.15 0.78-0.06 1.13s0.26 0.65 0.51 0.9zm0.11-0.32c-0.12-0.11-0.2-0.26-0.24-0.44-0.05-0.19-0.03-0.4 0.07-0.64 0.1-0.25 0.29-0.5 0.56-0.77 0.43-0.43 0.89-0.72 1.37-0.86 0.49-0.14 0.87-0.07 1.15 0.21 0.21 0.21 0.3 0.47 0.26 0.78-0.03 0.31-0.26 0.67-0.68 1.09-0.53 0.53-1.06 0.83-1.59 0.91-0.36 0.05-0.66-0.04-0.9-0.28zm1.29 4.82 3.94-3.94c0.19-0.19 0.32-0.3 0.41-0.33s0.18-0.04 0.26-0.01c0.09 0.02 0.21 0.11 0.37 0.26l0.11-0.11-1.45-1.46-0.12 0.12c0.13 0.13 0.21 0.24 0.24 0.32 0.02 0.08 0.01 0.16-0.03 0.25-0.03 0.1-0.14 0.24-0.33 0.42l-2.7 2.7c-0.33 0.34-0.55 0.53-0.64 0.6-0.09 0.06-0.17 0.09-0.23 0.08-0.06 0-0.12-0.03-0.17-0.09-0.06-0.05-0.11-0.14-0.16-0.26l-0.17 0.06 0.52 1.25zm3.8 0.69c0.45 0.45 0.98 0.64 1.59 0.57 0.53-0.06 0.98-0.28 1.36-0.66 0.26-0.26 0.47-0.59 0.61-0.99 0.15-0.41 0.18-0.79 0.09-1.15-0.08-0.36-0.26-0.68-0.54-0.95-0.45-0.45-0.98-0.63-1.6-0.54-0.53 0.08-0.97 0.31-1.35 0.68-0.27 0.27-0.47 0.61-0.61 1.02-0.13 0.4-0.15 0.78-0.06 1.13s0.26 0.65 0.51 0.89zm0.11-0.31c-0.12-0.11-0.2-0.26-0.25-0.45-0.04-0.18-0.02-0.39 0.08-0.64 0.1-0.24 0.28-0.49 0.55-0.76 0.44-0.44 0.89-0.72 1.38-0.86 0.49-0.15 0.87-0.08 1.15 0.21 0.21 0.21 0.3 0.46 0.26 0.77s-0.27 0.68-0.69 1.1c-0.53 0.53-1.05 0.83-1.58 0.91-0.37 0.05-0.67-0.04-0.9-0.28zm4.59 1.06c-0.27-0.09-0.54-0.11-0.79-0.05-0.26 0.07-0.48 0.19-0.68 0.39-0.29 0.29-0.43 0.65-0.42 1.09 0.01 0.43 0.18 0.82 0.53 1.17 0.28 0.28 0.6 0.46 0.95 0.53l0.63 0.63c0.09 0.09 0.14 0.14 0.17 0.15 0.02 0.01 0.04 0.01 0.06 0.01 0.03-0.01 0.07-0.04 0.12-0.09 0.06-0.06 0.09-0.1 0.1-0.13 0-0.02 0-0.04-0.01-0.06-0.01-0.03-0.06-0.08-0.15-0.18l-0.39-0.38c0.28-0.04 0.54-0.18 0.78-0.42 0.28-0.27 0.41-0.62 0.39-1.03-0.01-0.41-0.2-0.79-0.56-1.15-0.14-0.14-0.31-0.27-0.51-0.38-0.01-0.18-0.01-0.32 0.02-0.41 0.03-0.1 0.06-0.17 0.11-0.21 0.03-0.04 0.09-0.05 0.16-0.05s0.16 0.04 0.28 0.13c0.07 0.05 0.23 0.2 0.48 0.43 0.46 0.44 0.76 0.71 0.91 0.83 0.23 0.17 0.47 0.25 0.71 0.25s0.45-0.09 0.63-0.26c0.24-0.25 0.36-0.59 0.34-1.04-0.02-0.65-0.3-1.25-0.85-1.79-0.41-0.42-0.86-0.68-1.34-0.78-0.27-0.05-0.46-0.02-0.58 0.1-0.05 0.05-0.09 0.11-0.12 0.19-0.04 0.12-0.08 0.3-0.11 0.56 0 0.03-0.01 0.26-0.02 0.68-0.17-0.04-0.31-0.06-0.41-0.06-0.1 0.01-0.19 0.05-0.25 0.11-0.08 0.08-0.14 0.2-0.18 0.36-0.04 0.17-0.04 0.45 0 0.86zm-1.26 2.39c-0.16-0.16-0.23-0.36-0.21-0.6 0.02-0.23 0.16-0.48 0.43-0.75 0.34-0.34 0.68-0.53 1.01-0.57 0.26-0.03 0.47 0.04 0.64 0.21s0.24 0.36 0.22 0.59c-0.01 0.23-0.15 0.48-0.42 0.74-0.34 0.35-0.69 0.54-1.03 0.59-0.25 0.03-0.47-0.04-0.64-0.21zm2.31-3.51c0.01-0.21 0.03-0.39 0.08-0.53 0.04-0.15 0.1-0.27 0.18-0.35 0.11-0.1 0.26-0.13 0.46-0.08 0.35 0.08 0.73 0.33 1.14 0.74 0.39 0.39 0.61 0.74 0.66 1.07 0.05 0.32-0.01 0.56-0.16 0.71-0.12 0.11-0.25 0.14-0.41 0.08-0.16-0.07-0.41-0.26-0.75-0.59-0.5-0.47-0.9-0.82-1.2-1.05zm-1.36 7.88c0.09 0.09 0.2 0.13 0.33 0.13s0.24-0.04 0.33-0.13 0.13-0.2 0.13-0.33c0.01-0.13-0.04-0.24-0.13-0.33s-0.2-0.14-0.33-0.14-0.24 0.05-0.33 0.14-0.14 0.2-0.14 0.33c0 0.12 0.05 0.23 0.14 0.33zm1.82-1.29 2.39-2.39c0.19-0.18 0.33-0.29 0.42-0.33 0.08-0.03 0.17-0.04 0.25-0.02 0.09 0.03 0.2 0.11 0.34 0.25l0.12-0.12-1.45-1.44-0.11 0.11c0.14 0.15 0.22 0.26 0.25 0.34 0.02 0.08 0.01 0.16-0.03 0.26-0.03 0.09-0.14 0.23-0.33 0.41l-1.14 1.15c-0.32 0.32-0.54 0.52-0.66 0.6-0.08 0.05-0.15 0.07-0.21 0.07-0.06-0.01-0.12-0.04-0.18-0.09-0.06-0.06-0.11-0.15-0.17-0.27l-0.16 0.07 0.53 1.26zm2.5 0.08c0.44-0.44 0.89-0.68 1.36-0.72 0.47-0.03 0.85 0.1 1.14 0.39 0.19 0.19 0.31 0.42 0.35 0.67 0.03 0.25-0.03 0.55-0.19 0.91l0.16 0.04c0.25-0.35 0.39-0.75 0.42-1.21 0.02-0.46-0.13-0.86-0.46-1.19-0.36-0.35-0.8-0.52-1.33-0.5-0.54 0.03-1.04 0.27-1.51 0.74-0.5 0.51-0.77 1.04-0.79 1.58-0.03 0.55 0.16 1.02 0.55 1.41 0.33 0.34 0.72 0.5 1.15 0.5 0.43-0.01 0.84-0.2 1.2-0.56zm-0.19 0.19 1.38 1.38c-0.2 0.17-0.36 0.29-0.47 0.33-0.18 0.07-0.35 0.08-0.53 0.04-0.18-0.03-0.32-0.11-0.44-0.23-0.18-0.18-0.27-0.41-0.27-0.69-0.01-0.28 0.11-0.56 0.33-0.83z"/>
<g clip-path="url(#h)">
<path d="m266.67 287.03 1.28-1.28c0.28-0.28 0.48-0.42 0.61-0.43 0.18-0.01 0.35 0.06 0.52 0.23l0.17 0.17 0.12-0.12-1.89-1.89-0.12 0.12 0.17 0.17c0.18 0.19 0.25 0.38 0.21 0.58-0.02 0.11-0.16 0.29-0.41 0.54l-2.84 2.85c-0.28 0.27-0.48 0.41-0.61 0.42-0.18 0.01-0.35-0.06-0.52-0.23l-0.16-0.17-0.12 0.12 1.61 1.62c0.4 0.39 0.75 0.66 1.06 0.81 0.3 0.14 0.63 0.2 0.98 0.16s0.65-0.19 0.92-0.45c0.36-0.36 0.53-0.77 0.52-1.23s-0.23-0.91-0.67-1.34c-0.1-0.11-0.23-0.22-0.36-0.33-0.14-0.1-0.3-0.21-0.47-0.32zm-0.18 0.18c0.13 0.1 0.25 0.18 0.35 0.26s0.18 0.15 0.24 0.21c0.23 0.22 0.34 0.51 0.33 0.84-0.02 0.34-0.16 0.65-0.44 0.93-0.19 0.19-0.4 0.32-0.64 0.41-0.25 0.08-0.48 0.1-0.7 0.03-0.23-0.06-0.43-0.18-0.61-0.36-0.11-0.11-0.23-0.27-0.36-0.49zm3.69 5.33 1.02-1.01-0.11-0.11c-0.4 0.24-0.72 0.35-0.97 0.33-0.24-0.01-0.46-0.12-0.66-0.32-0.15-0.15-0.23-0.31-0.25-0.48-0.01-0.18 0.03-0.31 0.13-0.41 0.12-0.12 0.26-0.19 0.42-0.21 0.15-0.02 0.38 0.02 0.69 0.13l0.7 0.24c0.66 0.23 1.16 0.16 1.51-0.19 0.27-0.27 0.38-0.59 0.35-0.96-0.04-0.37-0.19-0.68-0.44-0.93-0.18-0.18-0.43-0.36-0.72-0.53-0.1-0.05-0.17-0.09-0.21-0.14-0.05-0.05-0.06-0.12-0.03-0.2l-0.11-0.11-1.06 1.06 0.1 0.11c0.37-0.24 0.71-0.35 1.04-0.34 0.32 0.02 0.59 0.13 0.8 0.35 0.15 0.15 0.23 0.31 0.24 0.49 0 0.18-0.06 0.34-0.18 0.46-0.15 0.15-0.33 0.22-0.53 0.22-0.21 0-0.55-0.08-1.02-0.24s-0.81-0.22-1.04-0.2c-0.22 0.03-0.42 0.14-0.61 0.32-0.24 0.25-0.36 0.54-0.36 0.87s0.14 0.63 0.4 0.9c0.12 0.11 0.29 0.23 0.5 0.35 0.14 0.08 0.23 0.13 0.27 0.17 0.04 0.03 0.06 0.07 0.06 0.1 0 0.04-0.01 0.09-0.03 0.17zm0.54 0.36 1.39 1.39 0.12-0.12-0.07-0.07c-0.1-0.1-0.15-0.19-0.16-0.29 0-0.09 0.02-0.16 0.09-0.23 0.08-0.08 0.23-0.16 0.45-0.24l2.23-0.77-0.98 2.3c-0.05 0.13-0.12 0.23-0.21 0.32-0.04 0.04-0.07 0.06-0.11 0.07-0.04 0-0.08-0.01-0.14-0.03-0.05-0.02-0.12-0.08-0.21-0.17l-0.12 0.12 0.97 0.97 0.12-0.13c-0.08-0.08-0.12-0.16-0.14-0.23-0.01-0.07-0.01-0.17 0.01-0.29 0.01-0.05 0.05-0.17 0.14-0.36l1.75-4.18c0.17-0.4 0.24-0.77 0.19-1.11-0.04-0.34-0.15-0.59-0.32-0.77-0.13-0.13-0.27-0.19-0.43-0.2-0.15-0.01-0.28 0.03-0.37 0.13-0.09 0.09-0.14 0.19-0.13 0.31 0 0.11 0.06 0.22 0.16 0.32 0.07 0.08 0.19 0.15 0.36 0.22 0.12 0.06 0.19 0.1 0.21 0.12 0.07 0.06 0.11 0.17 0.12 0.31 0.01 0.15-0.05 0.35-0.16 0.62l-0.31 0.73-3.31 1.18c-0.1 0.03-0.23 0.06-0.4 0.09-0.13 0.02-0.23 0.03-0.29 0.02-0.08-0.02-0.19-0.07-0.33-0.15zm7.92 4.23c0.31-0.47 0.46-0.93 0.43-1.37-0.02-0.45-0.17-0.81-0.45-1.09-0.34-0.34-0.78-0.49-1.31-0.46-0.54 0.03-1.05 0.29-1.53 0.77-0.47 0.47-0.71 0.99-0.72 1.56s0.17 1.05 0.56 1.44c0.3 0.29 0.61 0.45 0.96 0.49 0.34 0.03 0.59-0.04 0.76-0.2 0.08-0.09 0.12-0.18 0.12-0.28 0-0.11-0.05-0.21-0.15-0.3-0.12-0.13-0.26-0.18-0.41-0.17-0.08 0.01-0.19 0.07-0.33 0.19s-0.28 0.17-0.42 0.16c-0.15-0.01-0.28-0.08-0.42-0.22-0.21-0.21-0.31-0.47-0.28-0.76 0.04-0.39 0.23-0.75 0.58-1.1 0.35-0.36 0.75-0.58 1.2-0.68s0.82 0 1.11 0.3c0.21 0.21 0.33 0.47 0.36 0.79 0.02 0.21-0.05 0.51-0.2 0.89zm-2.24 4.74 2.18-2.18c-0.03 0.51 0 0.87 0.06 1.08 0.07 0.22 0.17 0.4 0.31 0.54 0.17 0.17 0.36 0.26 0.58 0.29 0.21 0.03 0.45-0.03 0.7-0.17 0.18-0.09 0.46-0.33 0.83-0.69l1.05-1.06c0.18-0.18 0.33-0.3 0.43-0.34 0.07-0.03 0.15-0.03 0.23-0.01s0.19 0.1 0.33 0.24l0.12-0.12-1.46-1.46-0.12 0.12 0.07 0.07c0.14 0.14 0.21 0.25 0.23 0.35 0.01 0.1-0.02 0.2-0.08 0.3-0.02 0.04-0.12 0.15-0.29 0.31l-1.05 1.06c-0.33 0.32-0.56 0.52-0.69 0.59-0.14 0.06-0.27 0.09-0.39 0.06-0.13-0.02-0.24-0.08-0.35-0.19-0.1-0.1-0.18-0.24-0.24-0.41s-0.08-0.42-0.07-0.75l1.57-1.58c0.2-0.2 0.34-0.31 0.41-0.34s0.16-0.03 0.25 0c0.1 0.03 0.22 0.12 0.37 0.27l0.12-0.12-1.47-1.47-0.12 0.12c0.13 0.13 0.21 0.25 0.25 0.37 0.02 0.06 0.01 0.14-0.02 0.23-0.03 0.08-0.15 0.22-0.33 0.41l-2.69 2.69c-0.34 0.34-0.56 0.54-0.65 0.6-0.1 0.06-0.17 0.09-0.24 0.08-0.06 0-0.12-0.03-0.17-0.09-0.05-0.04-0.1-0.14-0.17-0.27l-0.16 0.07 0.52 1.25zm5.4 2.29c0.45 0.45 0.99 0.64 1.6 0.57 0.52-0.06 0.97-0.28 1.35-0.66 0.27-0.27 0.47-0.6 0.62-1 0.14-0.4 0.17-0.78 0.09-1.14-0.09-0.37-0.27-0.68-0.54-0.96-0.45-0.45-0.98-0.63-1.6-0.53-0.53 0.08-0.98 0.3-1.35 0.68-0.27 0.27-0.48 0.61-0.61 1.01-0.14 0.41-0.16 0.78-0.07 1.13 0.1 0.35 0.27 0.65 0.51 0.9zm0.11-0.31c-0.11-0.12-0.19-0.27-0.24-0.45-0.05-0.19-0.02-0.4 0.08-0.64s0.28-0.5 0.55-0.77c0.43-0.43 0.89-0.72 1.38-0.86 0.48-0.14 0.87-0.07 1.15 0.21 0.21 0.21 0.29 0.47 0.26 0.78-0.04 0.31-0.27 0.67-0.69 1.1-0.53 0.52-1.06 0.83-1.59 0.9-0.36 0.06-0.66-0.04-0.9-0.27zm1.29 4.81 3.94-3.94c0.19-0.19 0.33-0.29 0.41-0.33 0.09-0.03 0.18-0.04 0.27-0.01 0.08 0.02 0.21 0.11 0.36 0.27l0.12-0.12-1.46-1.46-0.12 0.12c0.14 0.14 0.22 0.24 0.24 0.32s0.01 0.16-0.02 0.26c-0.04 0.09-0.15 0.23-0.33 0.41l-2.71 2.7c-0.33 0.34-0.54 0.54-0.64 0.6-0.09 0.06-0.17 0.09-0.23 0.08-0.06 0-0.12-0.03-0.17-0.08-0.05-0.06-0.11-0.15-0.16-0.27l-0.17 0.06 0.52 1.25zm3.8 0.69c0.45 0.45 0.98 0.64 1.6 0.58 0.52-0.07 0.97-0.28 1.35-0.66 0.27-0.27 0.47-0.6 0.62-1 0.14-0.4 0.17-0.78 0.09-1.15-0.09-0.36-0.27-0.68-0.54-0.95-0.45-0.45-0.99-0.63-1.61-0.54-0.52 0.08-0.97 0.31-1.34 0.68-0.28 0.28-0.48 0.61-0.62 1.02-0.13 0.4-0.15 0.78-0.06 1.13s0.26 0.65 0.51 0.89zm0.11-0.31c-0.11-0.11-0.2-0.26-0.24-0.45-0.05-0.18-0.03-0.39 0.07-0.63 0.1-0.25 0.29-0.5 0.56-0.77 0.43-0.43 0.89-0.72 1.37-0.86 0.49-0.14 0.87-0.07 1.15 0.21 0.21 0.21 0.3 0.47 0.26 0.78-0.03 0.31-0.26 0.67-0.68 1.09-0.53 0.53-1.06 0.83-1.59 0.91-0.36 0.05-0.66-0.04-0.9-0.28zm4.59 1.06c-0.27-0.09-0.53-0.11-0.79-0.04-0.26 0.06-0.48 0.18-0.67 0.38-0.3 0.29-0.44 0.66-0.43 1.09s0.19 0.82 0.53 1.17c0.29 0.28 0.6 0.46 0.95 0.53l0.63 0.63c0.09 0.09 0.15 0.14 0.17 0.15s0.04 0.01 0.06 0.01c0.03-0.01 0.07-0.04 0.12-0.09 0.06-0.05 0.09-0.1 0.1-0.13 0.01-0.02 0-0.04-0.01-0.06 0-0.02-0.06-0.08-0.15-0.17l-0.39-0.39c0.28-0.03 0.54-0.17 0.78-0.42 0.28-0.27 0.41-0.62 0.4-1.02-0.02-0.41-0.2-0.8-0.56-1.15-0.15-0.15-0.32-0.28-0.52-0.39-0.01-0.18 0-0.31 0.02-0.41 0.03-0.09 0.07-0.16 0.11-0.21 0.04-0.03 0.09-0.05 0.16-0.05s0.17 0.05 0.29 0.13c0.07 0.06 0.22 0.2 0.47 0.44 0.46 0.43 0.76 0.7 0.92 0.82 0.22 0.17 0.46 0.26 0.7 0.26 0.24-0.01 0.45-0.09 0.63-0.27 0.24-0.25 0.36-0.59 0.34-1.03-0.02-0.66-0.3-1.26-0.84-1.8-0.42-0.42-0.87-0.68-1.34-0.77-0.27-0.06-0.47-0.03-0.58 0.09-0.06 0.05-0.1 0.11-0.13 0.19-0.04 0.12-0.07 0.3-0.1 0.56-0.01 0.04-0.01 0.26-0.02 0.68-0.18-0.04-0.32-0.06-0.42-0.05-0.1 0-0.18 0.04-0.25 0.11-0.08 0.07-0.13 0.19-0.17 0.35-0.04 0.17-0.05 0.45-0.01 0.86zm-1.25 2.39c-0.16-0.16-0.24-0.36-0.22-0.6 0.02-0.23 0.17-0.48 0.43-0.75 0.34-0.34 0.68-0.53 1.02-0.57 0.25-0.03 0.46 0.04 0.64 0.21 0.16 0.17 0.24 0.37 0.22 0.6-0.02 0.22-0.16 0.47-0.42 0.74-0.35 0.34-0.69 0.53-1.04 0.58-0.25 0.03-0.46-0.04-0.63-0.21zm2.3-3.5c0.01-0.22 0.04-0.4 0.08-0.54 0.04-0.15 0.11-0.26 0.19-0.34 0.1-0.11 0.25-0.14 0.46-0.09 0.35 0.08 0.73 0.33 1.14 0.74 0.39 0.39 0.6 0.74 0.65 1.07 0.05 0.32-0.01 0.56-0.16 0.71-0.11 0.12-0.25 0.14-0.41 0.08-0.16-0.07-0.41-0.26-0.75-0.59-0.5-0.47-0.9-0.82-1.2-1.04zm-1.36 7.87c0.1 0.09 0.2 0.13 0.33 0.13s0.24-0.04 0.33-0.13 0.14-0.2 0.14-0.33-0.05-0.24-0.14-0.33-0.2-0.14-0.33-0.14-0.24 0.05-0.33 0.14-0.14 0.2-0.14 0.33c0 0.12 0.05 0.24 0.14 0.33zm1.83-1.29 2.39-2.39c0.18-0.18 0.32-0.29 0.41-0.33 0.09-0.03 0.17-0.04 0.26-0.01 0.08 0.02 0.19 0.1 0.33 0.24l0.12-0.12-1.44-1.44-0.12 0.12c0.14 0.14 0.23 0.25 0.25 0.33s0.01 0.16-0.02 0.26c-0.04 0.09-0.15 0.23-0.33 0.42l-1.15 1.14c-0.32 0.32-0.54 0.52-0.65 0.6-0.09 0.05-0.16 0.08-0.22 0.07-0.06 0-0.12-0.04-0.17-0.09-0.06-0.06-0.12-0.15-0.17-0.27l-0.17 0.07 0.54 1.26zm2.49 0.08c0.44-0.44 0.9-0.68 1.36-0.71 0.47-0.04 0.85 0.09 1.14 0.38 0.2 0.2 0.31 0.42 0.35 0.67s-0.03 0.56-0.19 0.91l0.17 0.04c0.25-0.34 0.39-0.75 0.41-1.21 0.03-0.46-0.13-0.86-0.46-1.18-0.35-0.36-0.8-0.53-1.33-0.5-0.53 0.02-1.03 0.27-1.5 0.74-0.51 0.5-0.78 1.03-0.8 1.58-0.02 0.54 0.16 1.01 0.55 1.41 0.34 0.33 0.72 0.49 1.15 0.49 0.44-0.01 0.84-0.2 1.21-0.56zm-0.19 0.19 1.38 1.38c-0.2 0.18-0.36 0.29-0.47 0.33-0.18 0.07-0.35 0.08-0.53 0.05-0.17-0.04-0.32-0.12-0.44-0.24-0.18-0.18-0.27-0.41-0.27-0.69s0.11-0.56 0.33-0.83z"/>
</g>
<g clip-path="url(#g)">
<path d="m353.88 306.65c0.37 0.24 0.7 0.36 1 0.37 0.41 0.01 0.76-0.13 1.04-0.42 0.22-0.21 0.36-0.49 0.42-0.83 0.07-0.34 0.02-0.68-0.13-1.01s-0.47-0.75-0.96-1.24l-2.08-2.08-0.12 0.12 0.16 0.17c0.19 0.18 0.26 0.37 0.22 0.57-0.02 0.12-0.16 0.31-0.4 0.55l-2.85 2.85c-0.27 0.27-0.47 0.41-0.61 0.42-0.18 0.01-0.35-0.07-0.52-0.23l-0.16-0.17-0.12 0.12 1.9 1.9c0.35 0.36 0.66 0.62 0.93 0.78 0.4 0.25 0.79 0.36 1.16 0.33s0.68-0.17 0.94-0.43c0.22-0.22 0.35-0.48 0.39-0.79s-0.03-0.64-0.21-0.98zm-1.87-1.53c0.09 0.07 0.19 0.15 0.3 0.24 0.11 0.1 0.23 0.21 0.36 0.33 0.31 0.31 0.51 0.59 0.61 0.81 0.09 0.23 0.1 0.46 0.05 0.68-0.06 0.23-0.17 0.42-0.34 0.59-0.25 0.26-0.58 0.37-0.97 0.34s-0.79-0.24-1.19-0.64c-0.22-0.22-0.39-0.44-0.51-0.66zm2.1-2.1c0.31 0.19 0.59 0.41 0.83 0.65 0.39 0.39 0.6 0.78 0.63 1.16 0.03 0.39-0.08 0.71-0.34 0.97-0.18 0.17-0.39 0.28-0.64 0.35-0.25 0.06-0.52 0.04-0.82-0.08-0.31-0.12-0.61-0.34-0.92-0.64-0.13-0.14-0.25-0.26-0.34-0.35-0.09-0.1-0.16-0.19-0.21-0.26zm5.24 13.4 0.12-0.12c-0.11-0.11-0.19-0.22-0.22-0.34-0.03-0.11-0.02-0.25 0.03-0.43 0.03-0.12 0.14-0.37 0.34-0.75l2.32-4.77-0.13-0.13-3.82 1.81 1.82-3.81-0.12-0.12-4.96 2.35c-0.37 0.17-0.59 0.27-0.67 0.3-0.13 0.04-0.25 0.04-0.36 0-0.12-0.03-0.24-0.11-0.36-0.24l-0.12 0.12 1.63 1.63 0.12-0.12-0.08-0.08c-0.12-0.11-0.18-0.23-0.19-0.34s0.03-0.21 0.1-0.28c0.08-0.07 0.3-0.2 0.67-0.38l3.33-1.6-1.37 2.83-0.5 0.24-0.4 0.19c-0.15 0.06-0.3 0.11-0.44 0.13-0.06 0.02-0.13 0.02-0.2 0-0.1-0.01-0.18-0.04-0.25-0.07-0.05-0.03-0.13-0.09-0.21-0.18l-0.12 0.12 1.71 1.71 0.12-0.12-0.12-0.11c-0.12-0.12-0.18-0.24-0.19-0.35 0-0.11 0.04-0.2 0.13-0.29 0.11-0.11 0.35-0.26 0.73-0.43l3.23-1.55-1.59 3.26c-0.17 0.36-0.31 0.6-0.41 0.7-0.05 0.05-0.11 0.08-0.19 0.09-0.07 0.01-0.14 0.01-0.21-0.02-0.11-0.06-0.23-0.15-0.36-0.28l-0.12 0.12zm7.06 0.69 0.13 0.09 0.81-1.57-3.4-3.41-0.12 0.12 0.16 0.16c0.19 0.19 0.26 0.38 0.22 0.59-0.02 0.11-0.16 0.29-0.41 0.54l-2.84 2.84c-0.28 0.28-0.48 0.42-0.61 0.43-0.18 0.01-0.35-0.07-0.52-0.23l-0.16-0.17-0.12 0.12 1.99 1.99 0.12-0.12c-0.24-0.23-0.38-0.41-0.43-0.55s-0.05-0.27-0.02-0.37c0.04-0.1 0.18-0.29 0.45-0.55l2.76-2.76c0.18-0.18 0.32-0.29 0.42-0.32 0.07-0.02 0.15-0.01 0.22 0.02 0.08 0.03 0.26 0.19 0.54 0.47l0.32 0.32c0.34 0.34 0.55 0.6 0.64 0.79s0.12 0.4 0.11 0.64c-0.02 0.24-0.1 0.55-0.26 0.93z"/>
</g>
<g clip-path="url(#f)">
<path d="m382.18 262.49-0.12 0.12 0.17 0.17c0.19 0.19 0.26 0.38 0.22 0.57-0.03 0.12-0.16 0.31-0.41 0.56l-2.84 2.84c-0.28 0.27-0.48 0.42-0.61 0.42-0.18 0.02-0.35-0.06-0.52-0.23l-0.17-0.16-0.12 0.12 1.79 1.79c0.66 0.65 1.24 1.08 1.73 1.27 0.49 0.2 1.02 0.22 1.57 0.09 0.56-0.14 1.07-0.44 1.52-0.9 0.62-0.61 0.94-1.31 0.98-2.09 0.04-0.88-0.36-1.74-1.22-2.6zm0.94 1.58c0.34 0.21 0.6 0.41 0.78 0.6 0.51 0.5 0.75 1.09 0.72 1.78-0.02 0.68-0.33 1.33-0.93 1.93-0.61 0.61-1.26 0.92-1.94 0.94s-1.28-0.23-1.8-0.75c-0.19-0.19-0.38-0.45-0.57-0.76zm2.64 5.71c0.44-0.45 0.89-0.69 1.36-0.72 0.47-0.04 0.85 0.09 1.14 0.38 0.19 0.2 0.31 0.42 0.35 0.67 0.03 0.25-0.03 0.56-0.19 0.92l0.16 0.03c0.25-0.34 0.39-0.74 0.42-1.2 0.02-0.47-0.13-0.86-0.46-1.19-0.36-0.36-0.8-0.52-1.33-0.5-0.54 0.02-1.04 0.27-1.51 0.74-0.5 0.51-0.77 1.03-0.79 1.58-0.03 0.55 0.16 1.01 0.55 1.41 0.33 0.33 0.72 0.5 1.15 0.49s0.84-0.19 1.2-0.56zm-0.19 0.18 1.38 1.38c-0.2 0.18-0.36 0.29-0.47 0.33-0.18 0.07-0.35 0.09-0.53 0.05s-0.32-0.12-0.44-0.23c-0.18-0.18-0.27-0.41-0.27-0.7-0.01-0.28 0.11-0.55 0.33-0.83zm4.08 5.94 1.8-1.8c0.34-0.34 0.56-0.55 0.65-0.61 0.1-0.06 0.18-0.08 0.24-0.08 0.07 0.01 0.12 0.03 0.17 0.08 0.07 0.07 0.13 0.16 0.17 0.28l0.16-0.06-0.52-1.26-0.15-0.15-0.62 0.63c0.02-0.53 0-0.9-0.07-1.1-0.06-0.21-0.17-0.39-0.31-0.54-0.17-0.16-0.36-0.26-0.58-0.29-0.22-0.02-0.43 0.02-0.63 0.12-0.2 0.11-0.44 0.3-0.71 0.57l-1.33 1.33c-0.14 0.14-0.25 0.22-0.34 0.25-0.08 0.02-0.17 0.02-0.26-0.01s-0.21-0.13-0.36-0.29l-0.12 0.13 1.04 1.04 1.99-1.99c0.28-0.28 0.51-0.41 0.69-0.4s0.34 0.08 0.48 0.22c0.09 0.09 0.17 0.22 0.23 0.4s0.09 0.43 0.08 0.75l-1.68 1.69c-0.17 0.17-0.31 0.25-0.44 0.25-0.12 0-0.28-0.1-0.48-0.29l-0.12 0.12zm0.66 2.62 0.98-0.98 0.69 0.7 0.23-0.23-0.7-0.69 1.93-1.93c0.2-0.19 0.35-0.3 0.47-0.31 0.13-0.01 0.23 0.03 0.32 0.11 0.07 0.08 0.12 0.17 0.14 0.28s0.01 0.23-0.04 0.35l0.13 0.13c0.13-0.29 0.18-0.56 0.15-0.8-0.03-0.25-0.12-0.45-0.27-0.59-0.09-0.1-0.22-0.17-0.37-0.21s-0.3-0.03-0.45 0.02c-0.15 0.06-0.33 0.2-0.54 0.41l-2 2-0.47-0.47-0.11 0.11c0.07 0.16 0.11 0.37 0.12 0.6 0.02 0.24-0.01 0.49-0.07 0.74-0.03 0.13-0.11 0.35-0.24 0.66zm3.76 1.98 1.01-1.01-0.1-0.11c-0.4 0.24-0.73 0.35-0.97 0.34-0.24-0.02-0.46-0.13-0.66-0.32-0.15-0.16-0.24-0.32-0.25-0.49s0.03-0.31 0.13-0.41c0.12-0.12 0.26-0.19 0.41-0.2 0.16-0.03 0.39 0.02 0.69 0.12l0.71 0.25c0.65 0.22 1.15 0.16 1.5-0.19 0.27-0.27 0.39-0.59 0.35-0.96s-0.18-0.69-0.44-0.94c-0.18-0.18-0.42-0.36-0.72-0.52-0.09-0.05-0.16-0.1-0.21-0.15s-0.06-0.11-0.03-0.2l-0.1-0.11-1.07 1.07 0.11 0.1c0.36-0.24 0.71-0.35 1.03-0.33 0.33 0.01 0.6 0.13 0.81 0.34 0.15 0.15 0.23 0.31 0.23 0.5 0.01 0.18-0.05 0.33-0.17 0.45-0.15 0.15-0.33 0.23-0.54 0.22-0.2 0-0.54-0.08-1.01-0.24s-0.82-0.22-1.04-0.19c-0.22 0.02-0.43 0.13-0.61 0.32-0.25 0.24-0.37 0.53-0.37 0.86 0.01 0.33 0.14 0.63 0.41 0.9 0.12 0.12 0.28 0.23 0.5 0.35 0.14 0.08 0.23 0.14 0.27 0.17 0.03 0.04 0.05 0.07 0.06 0.11 0 0.03-0.01 0.09-0.04 0.16zm5.07 1.21c0.32-0.47 0.46-0.93 0.44-1.37-0.03-0.45-0.18-0.81-0.46-1.09-0.34-0.34-0.78-0.49-1.31-0.46s-1.04 0.29-1.53 0.77c-0.46 0.47-0.7 0.99-0.72 1.56-0.01 0.57 0.18 1.05 0.57 1.44 0.29 0.29 0.6 0.45 0.95 0.48 0.34 0.04 0.6-0.03 0.76-0.19 0.08-0.09 0.12-0.18 0.12-0.28 0-0.11-0.05-0.21-0.14-0.3-0.13-0.13-0.27-0.19-0.42-0.17-0.08 0.01-0.19 0.07-0.33 0.19-0.14 0.11-0.28 0.17-0.42 0.16s-0.28-0.08-0.41-0.22c-0.22-0.21-0.32-0.47-0.29-0.76 0.04-0.39 0.23-0.76 0.58-1.1 0.36-0.36 0.76-0.59 1.2-0.68 0.45-0.1 0.82 0 1.11 0.3 0.22 0.21 0.33 0.47 0.36 0.78 0.02 0.22-0.05 0.52-0.2 0.89zm-2.11 4.86 2.17-2.18c-0.02 0.51 0 0.87 0.06 1.08 0.07 0.22 0.17 0.4 0.31 0.54 0.17 0.17 0.37 0.26 0.58 0.29s0.45-0.03 0.71-0.17c0.18-0.09 0.45-0.33 0.82-0.69l1.05-1.06c0.19-0.18 0.33-0.3 0.43-0.34 0.07-0.03 0.15-0.03 0.23-0.01 0.09 0.02 0.2 0.1 0.34 0.24l0.11-0.12-1.46-1.46-0.11 0.12 0.06 0.07c0.14 0.14 0.22 0.25 0.23 0.35s-0.01 0.2-0.07 0.3c-0.03 0.04-0.13 0.15-0.3 0.31l-1.05 1.06c-0.33 0.32-0.56 0.52-0.69 0.59-0.14 0.06-0.27 0.09-0.39 0.06-0.12-0.02-0.24-0.08-0.34-0.19-0.11-0.1-0.19-0.24-0.25-0.41s-0.08-0.42-0.07-0.75l1.57-1.58c0.2-0.2 0.34-0.31 0.41-0.34 0.08-0.03 0.16-0.03 0.26 0 0.09 0.03 0.21 0.12 0.37 0.27l0.11-0.12-1.47-1.47-0.12 0.12c0.13 0.13 0.22 0.25 0.25 0.37 0.02 0.06 0.02 0.14-0.02 0.23-0.03 0.08-0.14 0.22-0.33 0.41l-2.69 2.69c-0.34 0.34-0.56 0.54-0.65 0.6s-0.17 0.09-0.23 0.08c-0.07 0-0.12-0.03-0.18-0.09-0.05-0.05-0.1-0.14-0.17-0.27l-0.16 0.07 0.53 1.25zm5.65 0.13c0.44-0.45 0.89-0.69 1.36-0.72 0.47-0.04 0.85 0.09 1.14 0.38 0.19 0.2 0.31 0.42 0.35 0.67 0.03 0.25-0.03 0.56-0.19 0.92l0.16 0.03c0.25-0.34 0.39-0.74 0.42-1.2 0.02-0.47-0.13-0.86-0.46-1.19-0.36-0.36-0.8-0.52-1.33-0.5-0.54 0.02-1.04 0.27-1.51 0.74-0.5 0.51-0.77 1.03-0.79 1.58-0.03 0.54 0.16 1.01 0.55 1.41 0.33 0.33 0.72 0.5 1.15 0.49s0.84-0.19 1.2-0.56zm-0.19 0.18 1.38 1.38c-0.2 0.18-0.36 0.29-0.47 0.33-0.18 0.07-0.35 0.09-0.53 0.05s-0.32-0.12-0.44-0.23c-0.18-0.18-0.27-0.41-0.27-0.7-0.01-0.28 0.11-0.55 0.33-0.83zm5.23 5.27 1.28-1.28c0.28-0.28 0.48-0.42 0.61-0.43 0.18-0.01 0.35 0.07 0.51 0.23l0.17 0.17 0.12-0.12-1.88-1.88-0.12 0.12 0.16 0.16c0.19 0.19 0.26 0.38 0.22 0.58-0.02 0.11-0.16 0.3-0.41 0.55l-2.84 2.84c-0.28 0.28-0.48 0.42-0.61 0.43-0.18 0.01-0.35-0.07-0.52-0.24l-0.16-0.16-0.12 0.12 1.61 1.61c0.39 0.4 0.74 0.67 1.05 0.81 0.31 0.15 0.64 0.2 0.99 0.17 0.35-0.04 0.65-0.19 0.92-0.46 0.36-0.35 0.53-0.77 0.52-1.23s-0.24-0.91-0.67-1.34c-0.11-0.11-0.23-0.21-0.37-0.32s-0.29-0.22-0.46-0.33zm-0.19 0.19c0.14 0.09 0.26 0.17 0.36 0.25s0.18 0.15 0.24 0.21c0.23 0.23 0.33 0.51 0.32 0.85s-0.15 0.64-0.43 0.92c-0.19 0.19-0.41 0.33-0.65 0.41-0.24 0.09-0.47 0.1-0.69 0.04-0.23-0.06-0.43-0.18-0.61-0.37-0.11-0.11-0.23-0.27-0.37-0.48zm1.1 5.83 2.17-2.17c-0.02 0.5 0 0.86 0.07 1.07 0.06 0.22 0.17 0.4 0.31 0.54 0.17 0.17 0.36 0.27 0.57 0.29 0.22 0.03 0.45-0.02 0.71-0.17 0.18-0.09 0.45-0.33 0.82-0.69l1.05-1.05c0.19-0.19 0.33-0.31 0.43-0.35 0.08-0.03 0.15-0.03 0.24-0.01 0.08 0.02 0.19 0.1 0.33 0.24l0.11-0.11-1.46-1.47-0.11 0.12 0.07 0.07c0.13 0.14 0.21 0.26 0.22 0.35 0.01 0.1-0.01 0.2-0.07 0.3-0.03 0.04-0.13 0.15-0.3 0.32l-1.05 1.05c-0.32 0.32-0.55 0.52-0.69 0.59-0.13 0.07-0.26 0.09-0.39 0.07-0.12-0.03-0.24-0.09-0.34-0.19-0.11-0.11-0.19-0.25-0.25-0.42s-0.08-0.42-0.07-0.75l1.57-1.57c0.21-0.21 0.34-0.32 0.42-0.35 0.07-0.03 0.15-0.03 0.25 0 0.09 0.03 0.22 0.12 0.37 0.27l0.11-0.12-1.47-1.47-0.12 0.12c0.14 0.13 0.22 0.25 0.25 0.37 0.03 0.07 0.02 0.14-0.02 0.23-0.03 0.09-0.14 0.22-0.33 0.41l-2.69 2.69c-0.34 0.34-0.55 0.54-0.65 0.6-0.09 0.06-0.17 0.09-0.23 0.08-0.06 0-0.12-0.03-0.18-0.09-0.04-0.04-0.1-0.13-0.17-0.27l-0.16 0.07 0.53 1.25zm3.15 3.15c0.09 0.09 0.2 0.13 0.32 0.13 0.13 0 0.24-0.04 0.33-0.13s0.14-0.2 0.14-0.33-0.04-0.24-0.14-0.33c-0.09-0.09-0.2-0.14-0.33-0.14s-0.24 0.05-0.33 0.14-0.13 0.2-0.13 0.33c0 0.12 0.04 0.23 0.14 0.33zm1.82-1.29 2.39-2.39c0.18-0.18 0.32-0.29 0.41-0.33 0.09-0.03 0.18-0.04 0.26-0.02 0.08 0.03 0.19 0.11 0.33 0.25l0.12-0.12-1.44-1.44-0.12 0.11c0.15 0.15 0.23 0.26 0.25 0.34s0.01 0.16-0.02 0.26c-0.04 0.09-0.15 0.23-0.33 0.41l-1.15 1.15c-0.32 0.32-0.54 0.52-0.65 0.6-0.09 0.05-0.16 0.07-0.22 0.07-0.06-0.01-0.12-0.04-0.17-0.09-0.06-0.06-0.12-0.15-0.17-0.27l-0.17 0.07 0.54 1.26zm0.38 3.49 3.94-3.95c0.18-0.18 0.32-0.29 0.41-0.33 0.09-0.03 0.17-0.03 0.26-0.01 0.09 0.03 0.21 0.11 0.36 0.27l0.12-0.12-1.46-1.46-0.11 0.12c0.13 0.14 0.21 0.24 0.23 0.32 0.03 0.08 0.02 0.17-0.02 0.26s-0.15 0.23-0.33 0.41l-2.7 2.7c-0.34 0.34-0.55 0.54-0.64 0.6s-0.17 0.09-0.23 0.08c-0.06 0-0.12-0.03-0.17-0.08-0.06-0.06-0.11-0.15-0.16-0.27l-0.17 0.06 0.52 1.25zm3.79 0.69c0.45 0.45 0.99 0.64 1.6 0.57 0.52-0.06 0.98-0.28 1.35-0.66 0.27-0.27 0.48-0.6 0.62-1 0.15-0.4 0.18-0.78 0.09-1.15-0.08-0.36-0.26-0.68-0.54-0.95-0.45-0.45-0.98-0.63-1.6-0.53-0.53 0.07-0.98 0.3-1.35 0.67-0.27 0.28-0.48 0.62-0.61 1.02-0.13 0.41-0.16 0.78-0.06 1.13 0.09 0.35 0.26 0.65 0.5 0.9zm0.11-0.32c-0.11-0.11-0.19-0.26-0.24-0.44-0.05-0.19-0.02-0.4 0.08-0.64 0.1-0.25 0.28-0.5 0.55-0.77 0.43-0.43 0.89-0.72 1.38-0.86 0.48-0.14 0.87-0.07 1.15 0.21 0.21 0.21 0.3 0.47 0.26 0.78s-0.27 0.67-0.69 1.09c-0.53 0.53-1.06 0.83-1.59 0.91-0.36 0.05-0.66-0.04-0.9-0.28zm1.29 4.82 3.95-3.94c0.18-0.19 0.32-0.3 0.41-0.33 0.08-0.03 0.17-0.04 0.26-0.01 0.09 0.02 0.21 0.11 0.36 0.26l0.12-0.11-1.46-1.46-0.12 0.12c0.14 0.13 0.22 0.24 0.24 0.32s0.01 0.16-0.02 0.26c-0.04 0.09-0.15 0.23-0.33 0.41l-2.7 2.7c-0.34 0.34-0.55 0.53-0.64 0.6-0.1 0.06-0.17 0.09-0.24 0.08-0.06 0-0.11-0.03-0.17-0.09-0.05-0.05-0.11-0.14-0.16-0.26l-0.17 0.06 0.53 1.25zm3.8 0.69c0.45 0.45 0.98 0.64 1.6 0.57 0.52-0.06 0.97-0.28 1.35-0.66 0.27-0.26 0.47-0.59 0.62-0.99 0.14-0.41 0.17-0.79 0.09-1.15-0.09-0.36-0.27-0.68-0.54-0.95-0.45-0.45-0.99-0.63-1.61-0.54-0.52 0.08-0.97 0.31-1.34 0.68-0.28 0.27-0.48 0.61-0.61 1.02-0.14 0.4-0.16 0.78-0.07 1.13 0.1 0.35 0.26 0.65 0.51 0.89zm0.11-0.31c-0.11-0.11-0.19-0.26-0.24-0.45-0.05-0.18-0.02-0.39 0.08-0.64 0.1-0.24 0.28-0.49 0.55-0.76 0.43-0.44 0.89-0.72 1.38-0.86 0.48-0.15 0.86-0.08 1.15 0.21 0.21 0.21 0.29 0.46 0.26 0.77-0.04 0.31-0.27 0.68-0.69 1.1-0.53 0.53-1.06 0.83-1.59 0.91-0.36 0.05-0.66-0.04-0.9-0.28zm4.47 0.94c-0.27-0.09-0.53-0.11-0.79-0.05-0.25 0.06-0.48 0.19-0.67 0.38-0.3 0.3-0.44 0.66-0.43 1.1 0.01 0.43 0.19 0.82 0.54 1.17 0.28 0.28 0.59 0.46 0.94 0.53l0.63 0.63c0.09 0.09 0.15 0.14 0.17 0.15s0.04 0.01 0.06 0c0.03 0 0.07-0.03 0.12-0.08 0.06-0.06 0.09-0.1 0.1-0.13 0.01-0.02 0.01-0.04 0-0.06-0.01-0.03-0.07-0.08-0.16-0.18l-0.38-0.38c0.27-0.04 0.53-0.18 0.77-0.42 0.28-0.28 0.41-0.62 0.4-1.03-0.02-0.41-0.2-0.79-0.56-1.15-0.15-0.14-0.32-0.27-0.52-0.38-0.01-0.18 0-0.32 0.03-0.41 0.02-0.1 0.06-0.17 0.1-0.21s0.09-0.05 0.16-0.05 0.17 0.04 0.29 0.13c0.07 0.05 0.23 0.2 0.47 0.43 0.46 0.44 0.76 0.71 0.92 0.82 0.23 0.18 0.46 0.26 0.7 0.26s0.45-0.09 0.63-0.26c0.24-0.25 0.36-0.59 0.34-1.04-0.02-0.65-0.3-1.25-0.84-1.79-0.42-0.42-0.87-0.68-1.34-0.78-0.27-0.05-0.47-0.02-0.58 0.1-0.06 0.05-0.1 0.11-0.12 0.19-0.05 0.11-0.08 0.3-0.11 0.56-0.01 0.03-0.01 0.26-0.02 0.68-0.18-0.04-0.32-0.06-0.42-0.06-0.1 0.01-0.18 0.05-0.25 0.11-0.08 0.08-0.13 0.2-0.17 0.36-0.04 0.17-0.04 0.45-0.01 0.86zm-1.25 2.39c-0.16-0.16-0.23-0.36-0.22-0.6 0.02-0.23 0.17-0.48 0.43-0.75 0.34-0.34 0.68-0.53 1.02-0.57 0.25-0.03 0.47 0.04 0.64 0.21 0.16 0.17 0.24 0.36 0.22 0.59s-0.16 0.48-0.42 0.74c-0.35 0.35-0.69 0.54-1.03 0.59-0.26 0.03-0.47-0.04-0.64-0.21zm2.3-3.51c0.01-0.21 0.04-0.39 0.08-0.54 0.04-0.14 0.11-0.26 0.19-0.34 0.1-0.1 0.25-0.13 0.46-0.08 0.35 0.08 0.73 0.33 1.14 0.74 0.39 0.39 0.6 0.74 0.65 1.06 0.05 0.33 0 0.57-0.16 0.72-0.11 0.11-0.25 0.14-0.41 0.08-0.16-0.07-0.41-0.26-0.75-0.59-0.5-0.47-0.9-0.82-1.2-1.05zm-1.23 8c0.09 0.09 0.2 0.13 0.32 0.13 0.13 0 0.24-0.04 0.33-0.13s0.14-0.2 0.14-0.33-0.04-0.24-0.14-0.33c-0.09-0.09-0.2-0.14-0.33-0.14s-0.24 0.05-0.33 0.14-0.13 0.2-0.13 0.33c0 0.12 0.04 0.23 0.14 0.33zm1.82-1.29 2.39-2.39c0.18-0.18 0.32-0.29 0.41-0.33 0.09-0.03 0.18-0.04 0.26-0.02 0.08 0.03 0.19 0.11 0.33 0.25l0.12-0.12-1.44-1.44-0.12 0.11c0.15 0.15 0.23 0.26 0.25 0.34s0.01 0.16-0.02 0.26c-0.04 0.09-0.15 0.23-0.33 0.41l-1.15 1.15c-0.32 0.32-0.54 0.52-0.65 0.6-0.09 0.05-0.16 0.08-0.22 0.07s-0.11-0.04-0.17-0.09c-0.06-0.06-0.12-0.15-0.17-0.27l-0.17 0.07 0.54 1.26zm2.49 0.08c0.44-0.44 0.9-0.68 1.36-0.72 0.47-0.03 0.85 0.1 1.14 0.39 0.2 0.19 0.31 0.42 0.35 0.67s-0.03 0.55-0.19 0.91l0.17 0.04c0.25-0.35 0.39-0.75 0.41-1.21 0.03-0.46-0.13-0.86-0.45-1.19-0.36-0.35-0.81-0.52-1.34-0.5-0.53 0.03-1.03 0.27-1.5 0.74-0.51 0.51-0.78 1.04-0.8 1.58-0.02 0.55 0.16 1.02 0.56 1.41 0.33 0.34 0.71 0.5 1.15 0.5 0.43-0.01 0.83-0.2 1.2-0.56zm-0.18 0.19 1.37 1.38c-0.2 0.17-0.36 0.29-0.47 0.33-0.17 0.07-0.35 0.08-0.53 0.04-0.17-0.03-0.32-0.11-0.44-0.23-0.18-0.18-0.27-0.41-0.27-0.69s0.11-0.56 0.34-0.83z"/>
</g>
<g clip-path="url(#e)">
<path d="m445.45 266.8 1.52-1.52-0.12-0.12c-0.33 0.25-0.63 0.41-0.91 0.49-0.27 0.07-0.55 0.06-0.84-0.02-0.29-0.09-0.53-0.23-0.73-0.43-0.22-0.22-0.34-0.48-0.35-0.76-0.01-0.29 0.07-0.52 0.25-0.69 0.13-0.14 0.3-0.21 0.5-0.23 0.3-0.03 0.83 0.08 1.61 0.31 0.63 0.19 1.08 0.3 1.35 0.33 0.27 0.04 0.52 0.01 0.76-0.07 0.25-0.07 0.45-0.2 0.63-0.38 0.33-0.33 0.49-0.75 0.47-1.25-0.01-0.5-0.23-0.95-0.63-1.36-0.13-0.12-0.26-0.23-0.39-0.33-0.08-0.05-0.26-0.15-0.54-0.3-0.28-0.14-0.45-0.24-0.5-0.29-0.06-0.06-0.08-0.12-0.08-0.18 0-0.07 0.04-0.16 0.13-0.27l-0.12-0.12-1.51 1.51 0.12 0.12c0.37-0.26 0.69-0.42 0.94-0.48 0.25-0.07 0.53-0.05 0.83 0.04 0.29 0.09 0.56 0.26 0.8 0.49 0.27 0.27 0.41 0.55 0.42 0.85 0.02 0.3-0.07 0.55-0.27 0.75-0.11 0.1-0.25 0.18-0.42 0.23-0.17 0.06-0.36 0.07-0.58 0.04-0.15-0.02-0.52-0.12-1.11-0.28-0.58-0.17-1.02-0.27-1.3-0.3-0.29-0.03-0.55-0.02-0.78 0.05-0.24 0.07-0.44 0.2-0.63 0.38-0.31 0.32-0.46 0.71-0.45 1.18 0.02 0.47 0.21 0.89 0.58 1.27 0.24 0.23 0.54 0.42 0.92 0.57 0.17 0.06 0.29 0.12 0.34 0.17 0.05 0.06 0.08 0.12 0.08 0.19 0.01 0.07-0.03 0.17-0.11 0.29zm3.8 0.92c0.45 0.45 0.98 0.64 1.6 0.57 0.52-0.06 0.97-0.28 1.35-0.66 0.27-0.26 0.47-0.6 0.62-1 0.14-0.4 0.17-0.78 0.09-1.14-0.09-0.36-0.27-0.68-0.54-0.96-0.45-0.45-0.99-0.62-1.61-0.53-0.52 0.08-0.97 0.3-1.34 0.68-0.28 0.27-0.48 0.61-0.61 1.01-0.14 0.41-0.16 0.79-0.07 1.14 0.09 0.34 0.26 0.64 0.51 0.89zm0.11-0.31c-0.11-0.12-0.2-0.27-0.24-0.45-0.05-0.18-0.02-0.4 0.07-0.64 0.1-0.24 0.29-0.5 0.56-0.77 0.43-0.43 0.89-0.72 1.37-0.86 0.49-0.14 0.87-0.07 1.15 0.21 0.21 0.21 0.3 0.47 0.26 0.78-0.03 0.31-0.26 0.68-0.68 1.1-0.53 0.53-1.06 0.83-1.59 0.9-0.36 0.06-0.66-0.03-0.9-0.27zm6.43 2.55 0.88-0.94-2.63-2.63-0.11 0.12-0.66 4.6-0.97-0.97c-0.21-0.21-0.34-0.36-0.37-0.45-0.04-0.1-0.04-0.2-0.01-0.32 0.05-0.16 0.15-0.33 0.3-0.5l-0.13-0.13-0.8 0.84 2.49 2.5 0.12-0.12 0.64-4.63 1.09 1.08c0.23 0.23 0.36 0.4 0.4 0.52 0.05 0.12 0.05 0.25 0 0.4-0.03 0.1-0.15 0.28-0.35 0.52zm-2.51 4.9c0.09 0.09 0.2 0.14 0.33 0.14s0.24-0.05 0.33-0.14 0.13-0.2 0.14-0.33c0-0.13-0.05-0.24-0.14-0.33s-0.2-0.13-0.33-0.13-0.24 0.04-0.33 0.13-0.14 0.2-0.14 0.33 0.05 0.24 0.14 0.33zm1.83-1.28 2.38-2.39c0.19-0.19 0.33-0.3 0.42-0.33 0.09-0.04 0.17-0.04 0.25-0.02 0.09 0.02 0.2 0.1 0.34 0.24l0.12-0.11-1.45-1.45-0.11 0.12c0.14 0.14 0.22 0.26 0.25 0.33 0.02 0.08 0.01 0.17-0.02 0.26-0.04 0.1-0.15 0.23-0.33 0.42l-1.15 1.14c-0.32 0.33-0.54 0.53-0.66 0.6-0.08 0.06-0.15 0.08-0.21 0.07-0.06 0-0.12-0.03-0.17-0.09-0.07-0.06-0.12-0.15-0.18-0.27l-0.16 0.07 0.53 1.26zm5.1-0.16c-0.07-0.55-0.12-0.87-0.17-0.99-0.06-0.17-0.16-0.32-0.29-0.45-0.2-0.21-0.44-0.31-0.72-0.3-0.27 0.01-0.52 0.13-0.75 0.36-0.15 0.14-0.24 0.3-0.28 0.47-0.06 0.24-0.04 0.53 0.05 0.88s0.29 0.87 0.62 1.57l-0.12 0.11c-0.3 0.3-0.55 0.46-0.75 0.47-0.2 0.02-0.4-0.06-0.58-0.24-0.13-0.14-0.2-0.28-0.21-0.44-0.01-0.15 0.03-0.28 0.13-0.37l0.19-0.19c0.1-0.1 0.16-0.2 0.16-0.3 0-0.11-0.04-0.2-0.12-0.28s-0.17-0.12-0.28-0.12c-0.11 0.01-0.21 0.06-0.31 0.16-0.18 0.19-0.26 0.45-0.22 0.8 0.03 0.34 0.22 0.69 0.56 1.03 0.27 0.27 0.53 0.44 0.79 0.52 0.19 0.06 0.39 0.05 0.59-0.03 0.13-0.06 0.34-0.23 0.63-0.52l1.01-1.01c0.29-0.28 0.46-0.45 0.54-0.5 0.07-0.05 0.13-0.08 0.18-0.08 0.05 0.01 0.09 0.03 0.12 0.06s0.06 0.07 0.07 0.11c0.01 0.08 0.02 0.24 0.02 0.5l0.18-0.18c0.09-0.57 0.02-0.96-0.2-1.18-0.11-0.11-0.23-0.15-0.37-0.14-0.13 0.01-0.29 0.1-0.47 0.28zm-0.21 0.21-1.13 1.13c-0.2-0.46-0.32-0.76-0.36-0.91-0.08-0.27-0.1-0.49-0.07-0.67 0.03-0.17 0.11-0.32 0.23-0.45 0.16-0.15 0.33-0.23 0.53-0.24 0.19-0.01 0.35 0.04 0.47 0.16 0.17 0.17 0.28 0.49 0.33 0.98zm-1.74 6.21 3.94-3.94c0.19-0.19 0.33-0.3 0.42-0.33 0.08-0.04 0.17-0.04 0.26-0.02 0.09 0.03 0.21 0.12 0.36 0.27l0.12-0.11-1.46-1.46-0.12 0.12c0.14 0.13 0.22 0.24 0.24 0.32 0.02 0.07 0.01 0.16-0.02 0.25-0.04 0.1-0.15 0.23-0.33 0.42l-2.7 2.7c-0.34 0.33-0.55 0.53-0.65 0.59-0.09 0.07-0.16 0.09-0.23 0.09-0.06-0.01-0.11-0.04-0.17-0.09-0.05-0.05-0.11-0.14-0.16-0.26l-0.17 0.05 0.53 1.25zm2.27-1.02 1.24 1.25 0.12-0.12c-0.1-0.12-0.16-0.22-0.16-0.29s0.03-0.13 0.09-0.19c0.06-0.07 0.16-0.13 0.3-0.19l2.34-1.07-0.75 2.03-0.61 0.27c-0.18 0.08-0.34 0.1-0.47 0.06-0.08-0.01-0.19-0.09-0.32-0.21l-0.12 0.12 1.41 1.42 0.12-0.12c-0.15-0.17-0.23-0.3-0.24-0.42-0.01-0.08 0.02-0.15 0.1-0.23 0.04-0.04 0.09-0.08 0.16-0.11l2.38-1.03-1.02 2.27c-0.08 0.16-0.15 0.28-0.22 0.35-0.04 0.04-0.09 0.05-0.17 0.04-0.07-0.01-0.18-0.07-0.3-0.19l-0.12 0.12 0.93 0.94 0.13-0.12c-0.17-0.22-0.18-0.48-0.04-0.8l1.57-3.55-0.13-0.14-2.64 1.16 1.03-2.77-0.12-0.12-3.46 1.55c-0.22 0.09-0.39 0.14-0.5 0.13-0.12 0-0.25-0.06-0.41-0.16zm4.11 7.4c0.09 0.09 0.2 0.14 0.33 0.14s0.24-0.05 0.33-0.14 0.13-0.2 0.14-0.33c0-0.13-0.05-0.24-0.14-0.33s-0.2-0.13-0.33-0.13-0.24 0.04-0.33 0.13-0.14 0.2-0.14 0.33 0.05 0.24 0.14 0.33zm1.83-1.28 2.39-2.39c0.18-0.19 0.32-0.3 0.41-0.33 0.09-0.04 0.17-0.04 0.26-0.02 0.08 0.02 0.19 0.1 0.33 0.24l0.12-0.11-1.45-1.45-0.11 0.12c0.14 0.14 0.23 0.26 0.25 0.33 0.02 0.08 0.01 0.17-0.02 0.26-0.04 0.1-0.15 0.23-0.33 0.42l-1.15 1.14c-0.32 0.33-0.54 0.53-0.66 0.6-0.08 0.06-0.15 0.08-0.21 0.07-0.06 0-0.12-0.03-0.17-0.09-0.07-0.06-0.12-0.15-0.18-0.27l-0.16 0.07 0.53 1.26zm2.7 2.7 1.02-1.01-0.11-0.11c-0.4 0.24-0.72 0.35-0.97 0.34-0.24-0.02-0.46-0.12-0.66-0.32-0.15-0.15-0.23-0.32-0.25-0.49-0.01-0.17 0.03-0.31 0.13-0.4 0.12-0.13 0.26-0.2 0.42-0.21 0.15-0.02 0.38 0.02 0.69 0.12l0.7 0.25c0.66 0.22 1.16 0.16 1.51-0.19 0.27-0.27 0.38-0.59 0.35-0.96-0.04-0.37-0.19-0.68-0.44-0.94-0.18-0.18-0.42-0.35-0.72-0.52-0.1-0.05-0.17-0.1-0.21-0.14-0.05-0.05-0.06-0.12-0.03-0.21l-0.11-0.1-1.06 1.06 0.11 0.11c0.36-0.25 0.7-0.36 1.03-0.34 0.32 0.02 0.59 0.13 0.8 0.34 0.15 0.15 0.23 0.32 0.24 0.5 0 0.18-0.06 0.33-0.18 0.46-0.15 0.15-0.33 0.22-0.53 0.22-0.21-0.01-0.55-0.09-1.02-0.25-0.47-0.15-0.81-0.22-1.04-0.19-0.22 0.02-0.42 0.13-0.61 0.32-0.24 0.24-0.36 0.53-0.36 0.86 0 0.34 0.14 0.64 0.4 0.9 0.12 0.12 0.29 0.24 0.5 0.35 0.15 0.08 0.24 0.14 0.27 0.17 0.04 0.04 0.06 0.07 0.06 0.11 0 0.03-0.01 0.09-0.03 0.17zm2.66 2.66 1.02-1.01-0.11-0.11c-0.4 0.24-0.72 0.35-0.97 0.34-0.24-0.02-0.46-0.12-0.66-0.32-0.15-0.15-0.23-0.32-0.25-0.49-0.01-0.17 0.03-0.31 0.13-0.41 0.12-0.12 0.26-0.19 0.42-0.2 0.15-0.03 0.38 0.02 0.69 0.12l0.7 0.25c0.65 0.22 1.16 0.16 1.51-0.19 0.27-0.27 0.38-0.59 0.34-0.96-0.03-0.37-0.18-0.68-0.43-0.94-0.19-0.18-0.43-0.35-0.72-0.52-0.1-0.05-0.17-0.1-0.21-0.15-0.05-0.05-0.06-0.11-0.03-0.2l-0.11-0.1-1.06 1.06 0.1 0.1c0.37-0.24 0.71-0.35 1.04-0.33 0.32 0.01 0.59 0.13 0.8 0.34 0.15 0.15 0.23 0.32 0.23 0.5 0.01 0.18-0.05 0.33-0.17 0.45-0.15 0.15-0.33 0.23-0.53 0.22-0.21 0-0.55-0.08-1.02-0.24s-0.81-0.22-1.04-0.19c-0.22 0.02-0.42 0.13-0.61 0.32-0.25 0.24-0.37 0.53-0.36 0.86 0 0.34 0.14 0.64 0.4 0.9 0.12 0.12 0.28 0.23 0.5 0.35 0.14 0.08 0.23 0.14 0.27 0.17 0.04 0.04 0.05 0.07 0.06 0.11 0 0.03-0.01 0.09-0.03 0.17zm2.33-0.09c0.44-0.44 0.89-0.68 1.36-0.71 0.46-0.04 0.84 0.09 1.14 0.38 0.19 0.2 0.31 0.42 0.34 0.67 0.04 0.25-0.02 0.56-0.18 0.91l0.16 0.04c0.25-0.34 0.39-0.75 0.41-1.21 0.03-0.46-0.12-0.86-0.45-1.18-0.36-0.36-0.8-0.53-1.33-0.5-0.54 0.02-1.04 0.27-1.51 0.74-0.51 0.5-0.77 1.03-0.8 1.58-0.02 0.54 0.17 1.01 0.56 1.41 0.33 0.33 0.72 0.49 1.15 0.49 0.43-0.01 0.83-0.2 1.2-0.56zm-0.19 0.19 1.38 1.38c-0.21 0.18-0.36 0.29-0.48 0.33-0.17 0.07-0.35 0.08-0.52 0.05-0.18-0.04-0.33-0.12-0.44-0.24-0.18-0.18-0.27-0.41-0.28-0.69 0-0.28 0.11-0.56 0.34-0.83zm3 3.78c-0.07 0.77 0.05 1.31 0.36 1.62 0.17 0.17 0.35 0.27 0.55 0.3 0.19 0.04 0.42 0 0.67-0.12 0.18-0.08 0.41-0.26 0.67-0.53l1.27-1.27c0.19-0.18 0.33-0.3 0.43-0.33 0.08-0.03 0.16-0.04 0.24-0.01 0.09 0.02 0.2 0.1 0.34 0.24l0.12-0.11-1.47-1.47-0.12 0.11 0.06 0.07c0.14 0.13 0.22 0.25 0.23 0.35s-0.01 0.2-0.07 0.3c-0.02 0.04-0.12 0.15-0.29 0.32l-1.22 1.22c-0.27 0.27-0.5 0.43-0.69 0.48-0.2 0.05-0.38-0.01-0.54-0.17-0.26-0.26-0.38-0.66-0.35-1.19l1.57-1.57c0.2-0.2 0.33-0.31 0.41-0.34 0.09-0.03 0.18-0.04 0.26-0.01 0.08 0.02 0.2 0.12 0.37 0.28l0.11-0.12-1.47-1.47-0.11 0.12 0.06 0.06c0.15 0.15 0.22 0.29 0.19 0.42-0.02 0.13-0.14 0.31-0.36 0.52l-1.1 1.11c-0.36 0.35-0.58 0.56-0.68 0.63-0.09 0.06-0.17 0.09-0.23 0.08s-0.12-0.04-0.18-0.09c-0.06-0.06-0.12-0.15-0.17-0.27l-0.16 0.07 0.53 1.26 0.14 0.14zm3.69 4.95 1.01-1.02-0.11-0.1c-0.4 0.23-0.72 0.34-0.96 0.33-0.25-0.02-0.47-0.12-0.67-0.32-0.15-0.15-0.23-0.31-0.24-0.49-0.02-0.17 0.02-0.31 0.12-0.4 0.12-0.12 0.26-0.19 0.42-0.21 0.15-0.02 0.38 0.02 0.69 0.13l0.7 0.24c0.66 0.22 1.16 0.16 1.51-0.19 0.27-0.27 0.39-0.59 0.35-0.96s-0.19-0.68-0.44-0.93c-0.18-0.19-0.42-0.36-0.72-0.53-0.1-0.05-0.16-0.1-0.21-0.14-0.05-0.05-0.06-0.12-0.03-0.2l-0.11-0.11-1.06 1.06 0.11 0.11c0.36-0.25 0.7-0.36 1.03-0.34 0.32 0.02 0.59 0.13 0.8 0.34 0.15 0.15 0.23 0.32 0.24 0.5 0 0.18-0.05 0.33-0.18 0.46-0.15 0.15-0.33 0.22-0.53 0.22-0.21-0.01-0.55-0.09-1.02-0.25-0.47-0.15-0.81-0.22-1.03-0.19-0.23 0.03-0.43 0.13-0.62 0.32-0.24 0.25-0.36 0.53-0.36 0.87 0 0.33 0.14 0.63 0.4 0.89 0.12 0.12 0.29 0.24 0.5 0.35 0.15 0.08 0.24 0.14 0.27 0.18 0.04 0.03 0.06 0.07 0.06 0.1 0.01 0.03 0 0.09-0.03 0.17zm5.19 1.33c0.31-0.47 0.46-0.93 0.43-1.38-0.02-0.44-0.17-0.81-0.46-1.09-0.33-0.34-0.77-0.49-1.3-0.46-0.54 0.04-1.05 0.29-1.53 0.78-0.47 0.46-0.71 0.98-0.72 1.55-0.02 0.57 0.17 1.05 0.56 1.44 0.29 0.29 0.61 0.46 0.95 0.49 0.35 0.03 0.6-0.03 0.77-0.2 0.08-0.08 0.12-0.18 0.12-0.28s-0.05-0.2-0.15-0.3c-0.13-0.13-0.26-0.18-0.41-0.16-0.08 0.01-0.19 0.07-0.33 0.18-0.14 0.12-0.28 0.17-0.43 0.16-0.14-0.01-0.27-0.08-0.41-0.21-0.21-0.22-0.31-0.47-0.28-0.77 0.04-0.38 0.23-0.75 0.58-1.1s0.75-0.58 1.2-0.68c0.44-0.1 0.81 0 1.11 0.3 0.21 0.21 0.33 0.48 0.35 0.79 0.02 0.22-0.04 0.51-0.19 0.89zm-2.24 4.73 2.18-2.17c-0.03 0.5-0.01 0.86 0.06 1.08 0.07 0.21 0.17 0.39 0.31 0.53 0.17 0.17 0.36 0.27 0.57 0.3 0.22 0.02 0.45-0.03 0.71-0.17 0.18-0.1 0.46-0.33 0.82-0.7l1.06-1.05c0.18-0.19 0.33-0.3 0.43-0.34 0.07-0.03 0.15-0.04 0.23-0.02 0.08 0.03 0.19 0.11 0.33 0.24l0.12-0.11-1.46-1.46-0.12 0.11 0.07 0.07c0.14 0.14 0.21 0.26 0.22 0.35 0.02 0.1-0.01 0.2-0.07 0.3-0.03 0.04-0.12 0.15-0.29 0.32l-1.06 1.05c-0.32 0.32-0.55 0.52-0.68 0.59-0.14 0.07-0.27 0.09-0.39 0.07-0.13-0.03-0.24-0.09-0.35-0.19-0.1-0.11-0.19-0.25-0.24-0.42-0.06-0.17-0.09-0.42-0.07-0.75l1.57-1.57c0.2-0.21 0.34-0.32 0.41-0.35 0.07-0.02 0.16-0.02 0.25 0 0.1 0.03 0.22 0.12 0.37 0.27l0.12-0.11-1.48-1.48-0.11 0.12c0.13 0.13 0.21 0.26 0.25 0.37 0.02 0.07 0.01 0.14-0.02 0.23-0.04 0.09-0.15 0.22-0.33 0.41l-2.69 2.69c-0.34 0.34-0.56 0.54-0.65 0.6-0.1 0.06-0.18 0.09-0.24 0.09-0.06-0.01-0.12-0.04-0.17-0.1-0.05-0.04-0.11-0.13-0.17-0.27l-0.16 0.07 0.52 1.25zm8.26-0.11c-0.07-0.54-0.12-0.87-0.16-0.98-0.06-0.18-0.16-0.33-0.29-0.46-0.21-0.2-0.45-0.3-0.72-0.3-0.28 0.01-0.53 0.13-0.76 0.36-0.14 0.14-0.24 0.3-0.28 0.47-0.05 0.24-0.04 0.53 0.05 0.88s0.3 0.87 0.62 1.57l-0.11 0.12c-0.3 0.29-0.55 0.45-0.76 0.47-0.2 0.01-0.39-0.07-0.57-0.25-0.14-0.13-0.21-0.28-0.22-0.43 0-0.16 0.04-0.28 0.13-0.38l0.2-0.18c0.1-0.1 0.15-0.2 0.15-0.31 0.01-0.1-0.03-0.2-0.12-0.28-0.08-0.08-0.17-0.12-0.28-0.11-0.1 0-0.21 0.06-0.3 0.15-0.19 0.19-0.27 0.46-0.23 0.8 0.03 0.35 0.22 0.69 0.57 1.04 0.26 0.26 0.52 0.43 0.78 0.51 0.19 0.06 0.39 0.05 0.6-0.03 0.13-0.05 0.34-0.22 0.63-0.51l1.01-1.01c0.28-0.28 0.46-0.45 0.53-0.51 0.08-0.05 0.14-0.07 0.18-0.07 0.05 0 0.09 0.02 0.12 0.05 0.04 0.04 0.06 0.08 0.07 0.12 0.02 0.07 0.03 0.24 0.03 0.5l0.18-0.19c0.08-0.56 0.01-0.96-0.21-1.18-0.1-0.1-0.23-0.15-0.36-0.14-0.14 0.01-0.3 0.1-0.48 0.28zm-0.21 0.21-1.13 1.13c-0.2-0.45-0.32-0.76-0.36-0.91-0.07-0.26-0.1-0.48-0.07-0.66 0.04-0.18 0.11-0.33 0.24-0.45 0.15-0.16 0.33-0.24 0.52-0.25 0.2-0.01 0.36 0.05 0.48 0.17 0.16 0.16 0.27 0.49 0.32 0.97zm0.4 4.6 1.96-1.95c0.27-0.28 0.48-0.43 0.61-0.44 0.18-0.01 0.33 0.04 0.47 0.18l0.27 0.27 0.11-0.12-1.77-1.77-0.12 0.11 0.13 0.14c0.09 0.08 0.15 0.18 0.18 0.3 0.02 0.11 0.01 0.22-0.03 0.32-0.05 0.1-0.18 0.26-0.39 0.47l-1.95 1.95-0.58-0.57-0.24 0.23 0.58 0.58-0.19 0.19c-0.3 0.3-0.5 0.6-0.61 0.9s-0.13 0.61-0.06 0.93 0.22 0.61 0.47 0.85c0.22 0.23 0.51 0.37 0.84 0.41 0.23 0.03 0.4-0.02 0.52-0.14 0.06-0.07 0.1-0.16 0.1-0.27s-0.03-0.2-0.1-0.27c-0.05-0.05-0.12-0.08-0.21-0.1s-0.23-0.01-0.43 0.03c-0.2 0.03-0.35 0.04-0.46 0.01-0.11-0.02-0.2-0.08-0.29-0.16-0.1-0.1-0.15-0.21-0.17-0.33s0.02-0.25 0.1-0.4c0.08-0.14 0.35-0.44 0.81-0.9l0.22-0.22 0.76 0.77 0.24-0.24zm0.67 3.09 0.97-0.98 0.7 0.69 0.23-0.22-0.7-0.7 1.93-1.93c0.19-0.19 0.35-0.29 0.47-0.3s0.23 0.02 0.32 0.11c0.07 0.07 0.11 0.16 0.14 0.27 0.02 0.12 0.01 0.23-0.04 0.36l0.12 0.12c0.14-0.29 0.19-0.55 0.16-0.8-0.03-0.24-0.12-0.44-0.27-0.59-0.1-0.1-0.22-0.17-0.37-0.21s-0.3-0.03-0.45 0.03-0.33 0.19-0.54 0.41l-2 2-0.47-0.47-0.11 0.1c0.07 0.17 0.11 0.37 0.12 0.61s-0.01 0.48-0.07 0.74c-0.03 0.13-0.11 0.35-0.24 0.66zm3.54-0.65c0.44-0.44 0.9-0.68 1.36-0.72 0.47-0.03 0.85 0.1 1.14 0.39 0.2 0.19 0.31 0.42 0.35 0.67s-0.03 0.55-0.19 0.91l0.17 0.03c0.25-0.34 0.39-0.74 0.41-1.2 0.03-0.46-0.13-0.86-0.45-1.19-0.36-0.35-0.81-0.52-1.34-0.5-0.53 0.03-1.03 0.27-1.5 0.74-0.51 0.51-0.78 1.04-0.8 1.58-0.02 0.55 0.16 1.02 0.56 1.41 0.33 0.33 0.71 0.5 1.15 0.49 0.43 0 0.83-0.19 1.2-0.56zm-0.18 0.19 1.37 1.37c-0.2 0.18-0.36 0.29-0.47 0.34-0.17 0.06-0.35 0.08-0.53 0.04-0.17-0.04-0.32-0.11-0.44-0.23-0.18-0.18-0.27-0.41-0.27-0.69s0.11-0.56 0.34-0.83zm2.99 3.77c-0.07 0.77 0.06 1.32 0.37 1.63 0.16 0.16 0.34 0.26 0.54 0.3 0.2 0.03 0.43-0.01 0.68-0.12 0.18-0.09 0.4-0.26 0.67-0.53l1.27-1.27c0.19-0.19 0.33-0.3 0.43-0.34 0.08-0.03 0.16-0.03 0.24-0.01 0.08 0.03 0.2 0.11 0.34 0.25l0.12-0.12-1.47-1.47-0.12 0.12 0.06 0.06c0.14 0.14 0.21 0.26 0.23 0.36 0.01 0.09-0.01 0.19-0.07 0.3-0.03 0.04-0.13 0.14-0.3 0.32l-1.21 1.21c-0.27 0.27-0.51 0.43-0.7 0.49-0.19 0.05-0.37-0.01-0.54-0.18-0.25-0.25-0.37-0.65-0.34-1.19l1.56-1.56c0.2-0.21 0.34-0.32 0.41-0.34 0.1-0.03 0.18-0.04 0.27-0.01 0.08 0.02 0.2 0.11 0.36 0.27l0.12-0.11-1.47-1.47-0.12 0.11 0.07 0.07c0.15 0.15 0.21 0.29 0.19 0.42-0.03 0.13-0.15 0.3-0.36 0.52l-1.11 1.1c-0.35 0.36-0.58 0.57-0.67 0.63-0.1 0.06-0.17 0.09-0.24 0.09-0.06-0.01-0.12-0.04-0.17-0.1-0.06-0.06-0.12-0.15-0.17-0.26l-0.17 0.07 0.54 1.25 0.13 0.14z"/>
</g>
<g clip-path="url(#d)">
<text transform="matrix(1,0,0,-1,212.85,531.47)" fill="#000000" font-family="'Times New Roman'" font-size="11.95px">
<tspan x="0 6.6441998 10.62355 16.4193 21.7251 26.839701 32.814701 36.065102 42.0401 47.345901 50.417049 55.543598 59.451248 67.648949 72.775497 77.424049 82.729851 88.704849 91.931351 97.057899 102.3637 108.49405 111.91175 117.0383 121.1252 127.1002 132.40601 136.32561 139.7433 145.0491 148.45485 151.526 157.50101 163.6433 169.46295" y="0">Prozentuale Geschlechterverteilung</tspan>
</text>
</g>
<g clip-path="url(#c)">
<text transform="matrix(1,0,0,-1,157.45,517.65)" fill="#000000" font-family="'Times New Roman'" font-size="11.975px">
<tspan x="0 3.245225 9.2327251 12.3103 18.2978 23.435076 27.386826 30.620075 39.337875 44.463177 50.450676 53.707874 58.36615 63.635151 69.62265 74.759926 80.747421 84.172272 90.159775 96.147278 102.15872 105.08063 112.39735 118.42078 124.24062 127.3182 130.56343 135.22169 140.49071 146.4782 151.61548 157.60298 161.37511 168.0332 174.02071 177.30185 180.37943 186.19928 189.27686 195.26434 201.25185 204.68867 209.81398 213.57413 216.81935 226.06406 229.2973 235.9554 241.79919 248.45731 253.59457 256.82782 262.81534 268.80283 274.81427 280.80179" y="0">in der Deutschen und Englischen Philologie im SoSe 2018</tspan>
</text>
</g>
<path d="m253.03 498.68h4.6839v4.6839h-4.6839z" fill="#ffc000" fill-rule="evenodd"/>
<g clip-path="url(#b)">
<text transform="matrix(1,0,0,-1,259.82,498.02)" fill="#000000" font-family="'Times New Roman'" font-size="9.4px">
<tspan x="0 8.8736 12.972 15.6886 20.2852 22.8326 25.5492 29.6476" y="0">Weiblich</tspan>
</text>
</g>
<path d="m302.79 498.68h4.6839v4.6839h-4.6839z" fill="#ffe07d" fill-rule="evenodd"/>
<g clip-path="url(#a)">
<text transform="matrix(1,0,0,-1,309.6,498.02)" fill="#000000" font-family="'Times New Roman'" font-size="9.4px">
<tspan x="0 8.3565998 12.4738 17.239599 21.864401 24.580999 27.128401 31.226801" y="0">Mnnlich</tspan>
</text>
</g>
</g>
</g>
</g>
</g>
</g>
</svg>
