<?xml version="1.0" encoding="UTF-8"?>
<svg width="174.51mm" height="99.27mm" version="1.1" viewBox="0 0 174.50612 99.26989" xmlns="http://www.w3.org/2000/svg" xmlns:cc="http://creativecommons.org/ns#" xmlns:dc="http://purl.org/dc/elements/1.1/" xmlns:rdf="http://www.w3.org/1999/02/22-rdf-syntax-ns#" xmlns:xlink="http://www.w3.org/1999/xlink">
<defs>
<clipPath id="ac">
<path d="m50.2 258.2h494.8v285.2h-494.8z" clip-rule="evenodd"/>
</clipPath>
<clipPath id="ab">
<path d="m50.2 258.4h494.6v285h-494.6z" clip-rule="evenodd"/>
</clipPath>
<clipPath id="aa">
<path d="m50.2 258.4h494.6v285h-494.6z" clip-rule="evenodd"/>
</clipPath>
<clipPath id="z">
<path d="m50.2 258.4h494.6v285h-494.6z" clip-rule="evenodd"/>
</clipPath>
<clipPath id="y">
<path d="m50.2 258.4h494.6v285h-494.6z" clip-rule="evenodd"/>
</clipPath>
<clipPath id="x">
<path d="m50.2 258.4h494.6v285h-494.6z" clip-rule="evenodd"/>
</clipPath>
<clipPath id="w">
<path d="m50.2 258.4h494.6v285h-494.6z" clip-rule="evenodd"/>
</clipPath>
<clipPath id="v">
<path d="m50.2 258.4h494.6v285h-494.6z" clip-rule="evenodd"/>
</clipPath>
<clipPath id="u">
<path d="m50.2 258.4h494.6v285h-494.6z" clip-rule="evenodd"/>
</clipPath>
<clipPath id="t">
<path d="m50.2 258.4h494.6v285h-494.6z" clip-rule="evenodd"/>
</clipPath>
<clipPath id="s">
<path d="m50.2 258.4h494.6v285h-494.6z" clip-rule="evenodd"/>
</clipPath>
<clipPath id="r">
<path d="m50.2 258.4h494.6v285h-494.6z" clip-rule="evenodd"/>
</clipPath>
<clipPath id="q">
<path d="m50.2 258.4h494.6v285h-494.6z" clip-rule="evenodd"/>
</clipPath>
<clipPath id="p">
<path d="m50.2 258.4h494.6v285h-494.6z" clip-rule="evenodd"/>
</clipPath>
<clipPath id="o">
<path d="m50.2 258.4h494.6v285h-494.6z" clip-rule="evenodd"/>
</clipPath>
<clipPath id="n">
<path d="m50.2 258.4h494.6v285h-494.6z" clip-rule="evenodd"/>
</clipPath>
<clipPath id="m">
<path d="m50.2 258.4h494.6v285h-494.6z" clip-rule="evenodd"/>
</clipPath>
<clipPath id="l">
<path d="m50.2 258.4h494.6v285h-494.6z" clip-rule="evenodd"/>
</clipPath>
<clipPath id="k">
<path d="m50.2 258.4h494.6v285h-494.6z" clip-rule="evenodd"/>
</clipPath>
<clipPath id="j">
<path d="m50.2 258.4h494.6v285h-494.6z" clip-rule="evenodd"/>
</clipPath>
<clipPath id="i">
<path d="m50.2 258.4h494.6v285h-494.6z" clip-rule="evenodd"/>
</clipPath>
<clipPath id="h">
<path d="m50.2 258.4h494.6v285h-494.6z" clip-rule="evenodd"/>
</clipPath>
<clipPath id="g">
<path d="m50.2 258.4h494.6v285h-494.6z" clip-rule="evenodd"/>
</clipPath>
<clipPath id="f">
<path d="m50.2 258.4h494.6v285h-494.6z" clip-rule="evenodd"/>
</clipPath>
<clipPath id="e">
<path d="m50.2 258.4h494.6v285h-494.6z" clip-rule="evenodd"/>
</clipPath>
<clipPath id="d">
<path d="m50.2 258.4h494.6v285h-494.6z" clip-rule="evenodd"/>
</clipPath>
<clipPath id="c">
<path d="m50.2 258.4h494.6v285h-494.6z" clip-rule="evenodd"/>
</clipPath>
<clipPath id="b">
<path d="m50.2 258.4h494.6v285h-494.6z" clip-rule="evenodd"/>
</clipPath>
<clipPath id="a">
<path d="m50.2 258.4h494.6v285h-494.6z" clip-rule="evenodd"/>
</clipPath>
</defs>
<metadata>
<rdf:RDF>
<cc:Work rdf:about="">
<dc:format>image/svg+xml</dc:format>
<dc:type rdf:resource="http://purl.org/dc/dcmitype/StillImage"/>
<dc:title/>
</cc:Work>
</rdf:RDF>
</metadata>
<g transform="translate(-14.801 -8.5901)">
<g transform="translate(-4.5357 -.75595)">
<g transform="matrix(.35278 0 0 -.35278 2.3171 213.12)">
<g transform="matrix(0 -.77353 .84444 0 -58.818 648.78)">
<g transform="matrix(0 1.1842 -1.2928 0 794.32 67.173)">
<g clip-path="url(#ac)">
<path d="m50.337 258.15h494.69v285.13h-494.69z" fill="#fff" fill-rule="evenodd"/>
</g>
<path d="m73.184 295.62h11.543v-16.83h-11.543zm36.516 6.43h11.36v-23.26h-11.36zm36.52 10.22h11.35v-33.48h-11.35zm36.33 3.02h11.54v-36.5h-11.54zm36.52 2.46h11.35v-38.96h-11.35zm36.52 3.03h11.35v-41.99h-11.35zm36.33 21.57h11.54v-63.56h-11.54zm36.52 6.62h11.35v-70.18h-11.35zm36.52 16.09h11.35v-86.27h-11.35zm36.33 9.84h11.54v-96.11h-11.54zm36.51 37.27h11.36v-133.38h-11.36zm36.33 2.65h11.55v-136.03h-11.55zm36.52 67.17h11.54v-203.2h-11.54z" fill="#ffc000"/>
<path d="m60.744 278.79h473.88" fill="none" stroke="#d9d9d9" stroke-linejoin="round" stroke-miterlimit="10" stroke-width=".70956"/>
<g clip-path="url(#ab)">
<text transform="matrix(1,0,0,-1,71.9,301.75)" fill="#000000" font-family="'Times New Roman'" font-size="9.45px">
<tspan x="0 4.75 9.5" y="0">627</tspan>
</text>
</g>
<g clip-path="url(#aa)">
<text transform="matrix(1,0,0,-1,108.37,308.13)" fill="#000000" font-family="'Times New Roman'" font-size="9.45px">
<tspan x="0 4.7249999 9.4499998" y="0">864</tspan>
</text>
</g>
<g clip-path="url(#z)">
<text transform="matrix(1,0,0,-1,142.38,318.33)" fill="#000000" font-family="'Times New Roman'" font-size="9.45px">
<tspan x="0 4.7249999 9.4499998 14.175" y="0">1243</tspan>
</text>
</g>
<g clip-path="url(#y)">
<text transform="matrix(1,0,0,-1,178.85,321.38)" fill="#000000" font-family="'Times New Roman'" font-size="9.475px">
<tspan x="0 4.7249999 9.4499998 14.175" y="0">1356</tspan>
</text>
</g>
<g clip-path="url(#x)">
<text transform="matrix(1,0,0,-1,215.3,323.8)" fill="#000000" font-family="'Times New Roman'" font-size="9.475px">
<tspan x="0 4.7249999 9.4499998 14.175" y="0">1446</tspan>
</text>
</g>
<g clip-path="url(#w)">
<text transform="matrix(1,0,0,-1,251.78,326.92)" fill="#000000" font-family="'Times New Roman'" font-size="9.45px">
<tspan x="0 4.7249999 9.4499998 14.175" y="0">1563</tspan>
</text>
</g>
<g clip-path="url(#v)">
<text transform="matrix(1,0,0,-1,288.23,348.55)" fill="#000000" font-family="'Times New Roman'" font-size="9.45px">
<tspan x="0 4.75 9.5 14.25" y="0">2367</tspan>
</text>
</g>
<g clip-path="url(#u)">
<text transform="matrix(1,0,0,-1,324.7,355.15)" fill="#000000" font-family="'Times New Roman'" font-size="9.475px">
<tspan x="0 4.7249999 9.4499998 14.175" y="0">2612</tspan>
</text>
</g>
<g clip-path="url(#t)">
<text transform="matrix(1,0,0,-1,361.17,371.15)" fill="#000000" font-family="'Times New Roman'" font-size="9.45px">
<tspan x="0 4.7249999 9.4499998 14.175" y="0">3207</tspan>
</text>
</g>
<g clip-path="url(#s)">
<text transform="matrix(1,0,0,-1,397.63,381.02)" fill="#000000" font-family="'Times New Roman'" font-size="9.475px">
<tspan x="0 4.7249999 9.4499998 14.175" y="0">3574</tspan>
</text>
</g>
<g clip-path="url(#r)">
<text transform="matrix(1,0,0,-1,434.1,418.3)" fill="#000000" font-family="'Times New Roman'" font-size="9.45px">
<tspan x="0 4.7249999 9.4499998 14.175" y="0">4960</tspan>
</text>
</g>
<g clip-path="url(#q)">
<text transform="matrix(1,0,0,-1,470.55,421.05)" fill="#000000" font-family="'Times New Roman'" font-size="9.475px">
<tspan x="0 4.75 9.5 14.25" y="0">5062</tspan>
</text>
</g>
<g clip-path="url(#p)">
<text transform="matrix(1,0,0,-1,507.03,488.17)" fill="#000000" font-family="'Times New Roman'" font-size="9.45px">
<tspan x="0 4.7249999 9.4499998 14.175" y="0">7558</tspan>
</text>
</g>
<g clip-path="url(#o)">
<text transform="matrix(1,0,0,-1,70.25,266.03)" fill="#000000" font-family="'Times New Roman'" font-size="8.525px">
<tspan x="0 5.2684498 9.420125 13.205225" y="0">Theo</tspan>
</text>
</g>
<g clip-path="url(#n)">
<text transform="matrix(1,0,0,-1,101.15,266.03)" fill="#000000" font-family="'Times New Roman'" font-size="8.525px">
<tspan x="0 5.6861749 10.016875 13.801975 20.434425 22.69355" y="0">Chemie</tspan>
</text>
</g>
<g clip-path="url(#m)">
<text transform="matrix(1,0,0,-1,140.33,266.03)" fill="#000000" font-family="'Times New Roman'" font-size="8.525px">
<tspan x="0 4.7399001 9.0705996 13.24785 16.6408 18.916975" y="0">Physik</tspan>
</text>
</g>
<g clip-path="url(#l)">
<text transform="matrix(1,0,0,-1,179.63,266.03)" fill="#000000" font-family="'Times New Roman'" font-size="8.525px">
<tspan x="0 4.7399001 9.0705996 11.909425 15.148925" y="0">Forst</tspan>
</text>
</g>
<g clip-path="url(#k)">
<text transform="matrix(1,0,0,-1,217.75,266.03)" fill="#000000" font-family="'Times New Roman'" font-size="8.525px">
<tspan x="0 6.2403002 9.8378496" y="0">Geo</tspan>
</text>
</g>
<g clip-path="url(#j)">
<text transform="matrix(1,0,0,-1,244.3,266.03)" fill="#000000" font-family="'Times New Roman'" font-size="8.525px">
<tspan x="0 7.5531502 11.33825 13.580325 17.91955 21.704651 23.946726 26.785549 31.116249" y="0">Mathe/Inf</tspan>
</text>
</g>
<g clip-path="url(#i)">
<text transform="matrix(1,0,0,-1,287.85,266.03)" fill="#000000" font-family="'Times New Roman'" font-size="8.525px">
<tspan x="0 6.2403002 10.41755 13.256375 17.041475" y="0">Agrar</tspan>
</text>
</g>
<g clip-path="url(#h)">
<text transform="matrix(1,0,0,-1,320.75,266.03)" fill="#000000" font-family="'Times New Roman'" font-size="8.525px">
<tspan x="0 5.6861749 8.1157999 12.29305 14.7312 19.4711 22.685024" y="0">Bio/Psy</tspan>
</text>
</g>
<g clip-path="url(#g)">
<text transform="matrix(1,0,0,-1,363.63,266.03)" fill="#000000" font-family="'Times New Roman'" font-size="8.525px">
<tspan x="0 3.3929501 7.5446248 10.38345" y="0">Jura</tspan>
</text>
</g>
<g clip-path="url(#f)">
<text transform="matrix(1,0,0,-1,392.97,266.03)" fill="#000000" font-family="'Times New Roman'" font-size="8.525px">
<tspan x="0 7.5787249 11.363825 15.5496 18.013325 21.798426 24.09165" y="0">Medizin</tspan>
</text>
</g>
<g clip-path="url(#e)">
<text transform="matrix(1,0,0,-1,433.23,266.03)" fill="#000000" font-family="'Times New Roman'" font-size="8.525px">
<tspan x="0 7.953825 10.41755 18.371374" y="0">WiWi</tspan>
</text>
</g>
<g clip-path="url(#d)">
<text transform="matrix(1,0,0,-1,470.4,266.03)" fill="#000000" font-family="'Times New Roman'" font-size="8.525px">
<tspan x="0 4.7399001 9.0705996 17.024426" y="0">SoWi</tspan>
</text>
</g>
<g clip-path="url(#c)">
<text transform="matrix(1,0,0,-1,503.32,266.03)" fill="#000000" font-family="'Times New Roman'" font-size="8.525px">
<tspan x="0 4.7399001 9.0705996 11.3212 13.75935 18.49925 22.284349" y="0">PhilFak</tspan>
</text>
</g>
<g clip-path="url(#b)">
<text transform="matrix(1,0,0,-1,161.15,516.72)" fill="#000000" font-family="'Times New Roman'" font-size="13.25px">
<tspan x="0 11.75275 15.35675 21.02775 24.817249 31.27 34.874001 40.544998 43.950249 49.62125 53.953999 61.320999 64.925003 71.550003 78.175003 81.778999 87.449997 91.795998 97.467003 104.092 110.717 116.388 120.5485 125.70275 129.267 135.892 142.517 145.909 149.513 159.742 163.134 170.50101 176.95375 184.32076 190.005 193.79449 200.41949 207.04449 213.66949" y="0">Wie viele Studierende sind im SoSe 2018</tspan>
</text>
</g>
<g clip-path="url(#a)">
<text transform="matrix(1,0,0,-1,154.35,501.4)" fill="#000000" font-family="'Times New Roman'" font-size="13.25px">
<tspan x="0 3.5775001 10.2025 13.5945 20.2195 25.890499 32.515499 36.07975 41.750751 45.328251 51.953251 57.83625 63.480751 66.886002 73.511002 79.181999 85.806999 89.941002 96.936996 102.82 109.445 116.07 119.4355 123.013 128.896 132.61925 138.29025 144.91525 149.04926 154.72025 158.29774 164.92274 171.349 177.02 182.12125 188.00426 194.62926 198.94875 202.71175 208.38275 215.16675 220.83775 227.62175" y="0">in den einzelnen Fakultäten eingeschrieben?</tspan>
</text>
</g>
</g>
</g>
</g>
</g>
</g>
</svg>
